<?xml version="1.0" encoding="utf-8"?>
<!-- Generator: Adobe Illustrator 27.1.1, SVG Export Plug-In . SVG Version: 6.00 Build 0)  -->
<svg version="1.1" id="Calque_1" xmlns="http://www.w3.org/2000/svg" xmlns:xlink="http://www.w3.org/1999/xlink" x="0px" y="0px"
	 viewBox="0 0 1920 1000" style="enable-background:new 0 0 1920 1000;" xml:space="preserve">
<style type="text/css">
	.st0{fill:#72CECF;}
	.st1{fill:#F1F1F1;}
</style>
<g>
	<g>
		<path class="st0" d="M371.3,213.7c-158.3,0-286.7,128.4-286.7,286.7c0,42,9,81.8,25.2,117.7c14.6-6.7,84.3-34.3,177,1.4
			c0,0-48.4-43.8-29.4-103.1c0,0,19-57.7,96-62c0,0,43.8-2,69.9,40.7c0,0,19,42.7,73.5,67.5c0,0,11.8,5.9,4.7,15.4
			c0,0-4.2,4.2-10.7,0.7c-0.8-0.4-1.6-0.9-2.5-1.2c-8.9-3.4-62.7-20.8-76.9-23.2c0,0-27.3-6.3-36.5,18.7c-1.3,3.6-1.8,7.4-1.3,11.2
			c0.8,5.7,3.3,9.1,10.7,16.6c0.6,0.6,1.2,1.1,1.8,1.7c5.8,5.3,40.2,37.6,48.2,65.3c0,0,10.6,36.1,3.4,64.7c-0.6,4-1.9,7.8-3.5,11.5
			c-4.9,10.8-17.4,32.8-41,42.3C541.4,775.1,658,651.4,658,500.4C658,342.1,529.6,213.7,371.3,213.7z"/>
		<path class="st0" d="M144.8,606.8c0,0-50.8,12.1-86.3,38.1c0,0,18.6-27.7,86.3-48.2V606.8z"/>
	</g>
	<g>
		<path class="st1" d="M519.1,348.4H656h24.9c2.2,0,4.4,0,6.5,0c2.2,0,4,0.4,5.6,1.3c1.7,1.1,2.8,2.6,3.1,4.4c0.3,1.9,0.5,4.2,0.5,7
			v3.9c-0.4,1.8-0.8,3.2-1.1,4.3c-0.3,1.1-1,2.1-2.1,2.9c-1.8,1.1-4.2,1.6-7.2,1.6c-3.1,0-6,0-8.8,0h-37.3c-2.4,0-4.7-0.1-7-0.2
			c-2.3-0.1-4.4,0-6.2,0.3c-1.9,0.3-3.4,1-4.7,2c-1.3,1-2.3,2.5-2.9,4.4c-0.7,2-0.9,4.5-0.7,7.5c0.2,3.1,0.3,5.8,0.3,8.2V428v103.5
			v34.7c0,3.3-0.2,6.2-0.5,8.8s-1.6,4.5-3.8,5.6c-1.1,0.4-2.4,0.7-3.9,0.8c-1.5,0.1-3.2,0.2-4.9,0.2c-2.8,0-5.8,0-9,0
			c-3.2,0-5.3-0.8-6.4-2.3c-1.3-1.7-2-3.8-2.1-6.2c-0.1-2.4-0.2-5-0.2-7.9V536V428.3v-32.4c0-2.4,0.1-5.2,0.2-8.4
			c0.1-3.2-0.2-5.7-0.8-7.7c-1.1-3.5-3.6-5.3-7.4-5.6c-3.8-0.2-7.9-0.3-12.3-0.3h-36c-2.6,0-5.6,0.1-9,0.2c-3.4,0.1-6-0.2-7.7-0.8
			c-0.7-0.4-1.3-0.9-2-1.3c-0.7-0.4-1.2-1-1.6-1.6c-0.7-0.9-1.1-2.3-1.3-4.3c-0.2-2-0.3-3.9-0.2-5.9c0.1-2,0.4-3.8,0.8-5.6
			c0.4-1.7,1-2.9,1.6-3.6c0.4-0.7,1-1.1,1.8-1.5c0.8-0.3,1.6-0.6,2.5-0.8c0.4-0.2,0.9-0.3,1.3-0.2
			C518.2,348.6,518.6,348.6,519.1,348.4z"/>
		<path class="st1" d="M867.2,569.8c0.7,3.5,0.3,6.4-1,8.7c-1.3,2.3-3.1,4-5.2,5.1c-1.1,0.4-2.2,0.7-3.4,0.7c-1.2,0-2.5,0.2-3.8,0.7
			c-4.8,1.1-9.6,0.8-14.2-0.8c-4.7-1.6-7.9-3.7-9.7-6.1c-1.1-1.5-2.1-3.3-2.9-5.4c-0.9-2.1-2-3.8-3.3-5.1c-0.4-0.4-0.9-0.9-1.5-1.3
			c-0.5-0.4-1.3-0.5-2.1-0.3c-2.4,0.7-4.6,1.9-6.7,3.6c-2.1,1.8-4.1,3.3-6.1,4.6c-2.8,1.8-5.9,3.3-9.2,4.7
			c-3.3,1.4-6.8,2.7-10.5,3.8c-2.2,0.7-4.5,1.1-7,1.3c-2.5,0.2-5,0.5-7.4,1c-1.1,0.2-2,0.3-2.8,0.3c-0.8,0-1.6,0-2.5,0
			c-2.4,0.4-4.7,0.4-6.9,0h-2.9c-1.1-0.2-2.2-0.3-3.3-0.3c-1.1,0-2.1-0.2-2.9-0.7c-0.9-0.2-1.6-0.3-2.1-0.2
			c-0.5,0.1-1.1,0.1-1.8-0.2c-1.8-0.4-3.5-0.8-5.2-1.1c-1.8-0.3-3.4-0.8-4.9-1.5c-6.6-2.8-11.8-6.1-15.9-9.7c-4-3.6-7.4-8.7-10-15.2
			c-2-4.8-2.9-10.6-2.9-17.4v-6.9c0.2-1.1,0.4-2.2,0.5-3.4c0.1-1.2,0.3-2.5,0.5-3.8c0.9-2.4,1.7-4.8,2.6-7.2c0.9-2.4,2-4.6,3.3-6.6
			c3.9-6.3,9.3-11,16-14.1c6.8-3.1,14.2-5.8,22.3-8.2c3.1-0.9,6.2-1.5,9.5-2c3.3-0.4,6.6-1,9.8-1.6c1.5-0.4,3-0.7,4.4-0.7
			c1.4,0,3-0.2,4.7-0.7c1.5-0.4,3.1-0.7,4.6-0.8c1.5-0.1,3.2-0.4,4.9-0.8c5.5-1.3,10.6-2.5,15.4-3.4c4.8-1,8.6-3.4,11.5-7.4
			c1.3-1.7,2.4-4,3.3-6.7c0.9-2.7,0.9-5.7,0-9c-1.3-5.2-3.2-9.4-5.7-12.4c-2.5-3.1-6.1-5.5-10.6-7.2c-2.6-1.1-5.7-1.9-9.3-2.3
			c-3.6-0.4-7.4-0.7-11.3-0.7s-7.8,0.2-11.5,0.7c-3.7,0.4-6.9,1.1-9.5,2c-3.7,1.3-7.3,3.2-10.8,5.6c-1.8,1.3-3.3,3-4.7,5.1
			c-1.4,2.1-2.7,4.3-3.8,6.7c-0.7,1.8-1.3,3.6-1.8,5.6c-0.5,2-1.6,3.5-3.1,4.6c-0.9,0.7-2.3,1.1-4.4,1.5c-2.1,0.3-4.2,0.5-6.4,0.5
			c-2.2,0-4.3-0.2-6.4-0.5c-2.1-0.3-3.6-0.8-4.4-1.5c-0.9-0.7-1.5-1.7-2-3.3c-0.4-1.5-0.4-3.2,0-4.9c0.7-2.8,1.4-5.5,2.1-8
			c0.8-2.5,1.7-5,2.8-7.4c4.1-7.6,9.4-13.6,15.7-17.8c6.3-4.3,14.2-7.7,23.6-10.3c2.2-0.4,4.4-0.8,6.7-1c2.3-0.2,4.6-0.5,7-1
			c0.9-0.2,2.3-0.3,4.3-0.2c2,0.1,3.2-0.1,3.6-0.5c15.3-0.2,28.6,1.5,40,5.2c11.4,3.7,19.3,10.8,23.9,21.3c2,4.4,3.1,9.4,3.4,15.2
			c0.3,5.8,0.5,11.8,0.5,18.2v72.4c0,3.1,0.1,6,0.3,8.8c0.2,2.8,0.9,5.1,2,6.9c1.1,1.5,2.5,2.6,4.3,3.3c2,0.9,3.8,1.5,5.6,1.8
			c1.7,0.3,3.1,1.4,3.9,3.1c0.4,0.7,0.7,1.3,0.7,2S867,568.7,867.2,569.8z M820.4,533.4c1.3-3.1,2-6.6,2.1-10.6
			c0.1-4,0.2-8.2,0.2-12.6c0-2.4-0.1-4.6-0.3-6.5c-0.2-2-1.1-3.5-2.6-4.6c-0.7-0.4-2.2-0.7-4.6-0.7c-0.4,0.4-1.2,0.7-2.3,0.7
			c-1.1,0-2.1,0.2-2.9,0.7c-1.8,0.4-3.7,0.9-5.9,1.3c-2.2,0.4-4.4,0.9-6.6,1.3c-0.7,0-1.4,0.1-2.1,0.2c-0.8,0.1-1.6,0.2-2.5,0.2
			c-3.3,0.9-6.8,1.4-10.6,1.5c-3.8,0.1-7.4,0.6-10.6,1.5c-1.8,0.4-3.3,0.8-4.7,1.1c-1.4,0.3-3,0.7-4.7,1.1c-3.5,1.1-6.8,2.5-9.8,4.1
			c-3.1,1.6-5.7,3.7-7.9,6.1c-2.2,2.4-3.8,5.3-4.9,8.7c-1.1,3.4-1.5,7.5-1.3,12.3c0,2.2,0.4,4.2,1.1,6.1c0.8,1.9,1.7,3.6,2.8,5.1
			c1.7,2.4,4,4.4,6.9,6.1c2.8,1.6,5.9,3,9.2,4.1c1.1,0.2,2.2,0.3,3.3,0.3c1.1,0,2.2,0.1,3.3,0.3c1.5,0.4,3.4,0.7,5.7,0.8
			c2.3,0.1,4.2-0.1,5.7-0.5c1.3-0.4,2.6-0.6,3.9-0.5c1.3,0.1,2.6-0.1,3.9-0.5c1.7-0.4,3.4-0.8,5.1-1c1.6-0.2,3.2-0.7,4.7-1.3
			c6.3-2.6,11.7-5.8,16.2-9.5C814.5,544.8,818,539.7,820.4,533.4z"/>
		<path class="st1" d="M973.3,409.3c8.3-0.2,15.3,0.7,21.1,2.6c5.8,2,11.1,4.8,15.9,8.5c1.7,1.1,3.2,2.6,4.4,4.4
			c1.2,1.9,2.6,3.6,4.1,5.1c0.4,0.4,1.1,1,2,1.6c0.9,0.7,2,0.9,3.3,0.7c2.2-0.7,4.1-2,5.7-4.1c1.6-2.1,3.3-3.7,5.1-4.7
			c3.1-2.4,6.2-4.5,9.5-6.4c3.3-1.9,6.9-3.4,10.8-4.7c1.7-0.7,3.7-1.1,5.7-1.5c2.1-0.3,4.1-0.7,6.1-1.1c1.1-0.2,2.1-0.3,3.1-0.3
			c1,0,2,0,3.1,0c1.1-0.4,2.6-0.6,4.6-0.5c2,0.1,3.4,0.3,4.3,0.5c1.1,0.2,2.7,0.3,4.9,0.3c2,0.4,3.9,0.8,5.7,1.1
			c1.9,0.3,3.7,0.8,5.4,1.5c1.1,0.4,2.1,0.7,3.1,0.8c1,0.1,2,0.4,3.1,0.8c10.9,4.8,18.4,12.2,22.6,22.3c0.9,1.8,1.5,3.7,2,5.7
			c0.4,2.1,0.9,4.3,1.3,6.7c0.4,0.7,0.6,1.4,0.5,2.1c-0.1,0.8-0.1,1.5,0.2,2.1v2.9c0.2,0.9,0.3,1.9,0.2,2.9
			c-0.1,1.1-0.2,2.2-0.2,3.3v12.8v21V558c0,3.5,0.1,7.6,0.2,12.4c0.1,4.8-0.8,8-2.8,9.5c-0.9,0.7-2.3,1.1-4.3,1.5
			c-2,0.3-4,0.5-6.2,0.5c-2.2,0-4.3-0.1-6.4-0.3c-2.1-0.2-3.6-0.7-4.4-1.3c-1.3-0.7-2.2-2-2.6-3.9c-0.4-1.3-0.5-2.7-0.3-4.1
			c0.2-1.4,0.1-2.8-0.3-4.1c-0.2-1.1-0.3-2.3-0.2-3.8c0.1-1.4,0.2-2.8,0.2-4.1v-14.7V483c0-7.2-0.2-14-0.5-20.5
			c-0.3-6.4-1.9-11.8-4.8-16.2c-3.3-5.2-8.3-9.1-15.1-11.5c-1.3-0.4-2.7-0.7-4.1-0.8c-1.4-0.1-2.9-0.4-4.4-0.8
			c-0.9-0.2-2.3-0.3-4.3-0.2c-2,0.1-3.3,0.3-3.9,0.5c-1.1,0.2-2.2,0.3-3.3,0.2c-1.1-0.1-2.2,0.1-3.3,0.5c-3.1,0.7-6,1.5-8.8,2.6
			c-11.4,4.8-19,13.2-22.9,25.2c-1.1,3.7-1.7,8-1.8,12.8c-0.1,4.8-0.2,9.7-0.2,14.7v42.9v31.8c0,2.6,0,5.3,0,8
			c0,2.7-0.5,4.9-1.6,6.4c-1.1,1.8-2.9,2.7-5.6,2.9c-2.6,0.2-5.4,0.3-8.2,0.3c-3.7,0-6.4-0.4-8.2-1.3c-2-1.1-3.1-2.9-3.4-5.4
			c-0.3-2.5-0.5-5.3-0.5-8.4v-31.1v-54c0-7-0.2-13.5-0.7-19.5c-0.4-6-2-11.2-4.6-15.6c-2.4-3.9-5.1-6.8-8.2-8.7
			c-3.1-1.9-7.2-3.3-12.4-4.4c-0.9-0.2-1.8-0.3-2.8-0.3s-2,0-3.1,0c-4.8,0-9,0.5-12.6,1.6c-3.6,1.1-6.8,2.5-9.7,4.3
			c-11.1,6.8-18.6,16.9-22.3,30.5c-0.9,2.8-1.3,6.1-1.1,9.7c0.1,3.6,0.2,7.2,0.2,10.6v37v36c0,2.8,0,5.8,0,8.8c0,3.1-0.7,5.5-2,7.2
			c-1.1,1.5-2.7,2.4-4.9,2.6c-2.2,0.2-4.5,0.3-6.9,0.3h-4.9c-1.3-0.4-2.6-0.8-3.8-1c-1.2-0.2-2.2-0.9-3.1-2c-1.1-1.3-1.6-3-1.6-5.1
			c0-2.1,0-4.3,0-6.7v-21.3v-93.7V428c0-2.2,0-4.3,0-6.4c0-2.1,0.4-3.8,1.3-5.1c0.7-1.3,1.6-2.2,2.9-2.6c1.7-0.7,4.5-1,8.4-1
			c3.8,0,6.6,0.3,8.4,1c1.7,0.9,2.9,2,3.6,3.3c0.4,1.1,0.7,2.4,0.8,3.9c0.1,1.5,0.3,2.9,0.5,4.3c0.2,1.3,0.7,2.4,1.3,3.3
			c0.7,0.9,1.7,1.3,3.3,1.3c0.4-0.4,0.9-0.7,1.5-0.7c0.5,0,1-0.2,1.5-0.7c1.3-1.1,2.6-2.2,3.8-3.3c1.2-1.1,2.5-2.2,3.8-3.3
			c4.8-3.5,10.3-6.6,16.4-9.2c2.2-0.9,4.4-1.5,6.6-1.8c2.2-0.3,4.5-0.8,6.9-1.5c1.3,0,2.7-0.1,4.1-0.2
			C970.6,409.3,972,409.3,973.3,409.3z"/>
		<path class="st1" d="M1322.4,569.8c0.7,3.5,0.3,6.4-1,8.7c-1.3,2.3-3.1,4-5.2,5.1c-1.1,0.4-2.2,0.7-3.4,0.7
			c-1.2,0-2.5,0.2-3.8,0.7c-4.8,1.1-9.6,0.8-14.2-0.8c-4.7-1.6-7.9-3.7-9.7-6.1c-1.1-1.5-2.1-3.3-2.9-5.4c-0.9-2.1-2-3.8-3.3-5.1
			c-0.4-0.4-0.9-0.9-1.5-1.3c-0.5-0.4-1.3-0.5-2.1-0.3c-2.4,0.7-4.6,1.9-6.7,3.6c-2.1,1.8-4.1,3.3-6.1,4.6c-2.8,1.8-5.9,3.3-9.2,4.7
			c-3.3,1.4-6.8,2.7-10.5,3.8c-2.2,0.7-4.5,1.1-7,1.3c-2.5,0.2-5,0.5-7.4,1c-1.1,0.2-2,0.3-2.8,0.3c-0.8,0-1.6,0-2.5,0
			c-2.4,0.4-4.7,0.4-6.9,0h-2.9c-1.1-0.2-2.2-0.3-3.3-0.3c-1.1,0-2.1-0.2-2.9-0.7c-0.9-0.2-1.6-0.3-2.1-0.2
			c-0.5,0.1-1.1,0.1-1.8-0.2c-1.8-0.4-3.5-0.8-5.2-1.1c-1.8-0.3-3.4-0.8-4.9-1.5c-6.5-2.8-11.8-6.1-15.9-9.7c-4-3.6-7.4-8.7-10-15.2
			c-2-4.8-2.9-10.6-2.9-17.4v-6.9c0.2-1.1,0.4-2.2,0.5-3.4c0.1-1.2,0.3-2.5,0.5-3.8c0.9-2.4,1.7-4.8,2.6-7.2c0.9-2.4,2-4.6,3.3-6.6
			c3.9-6.3,9.3-11,16-14.1c6.8-3.1,14.2-5.8,22.3-8.2c3.1-0.9,6.2-1.5,9.5-2c3.3-0.4,6.5-1,9.8-1.6c1.5-0.4,3-0.7,4.4-0.7
			c1.4,0,3-0.2,4.7-0.7c1.5-0.4,3.1-0.7,4.6-0.8c1.5-0.1,3.2-0.4,4.9-0.8c5.5-1.3,10.6-2.5,15.4-3.4c4.8-1,8.6-3.4,11.5-7.4
			c1.3-1.7,2.4-4,3.3-6.7c0.9-2.7,0.9-5.7,0-9c-1.3-5.2-3.2-9.4-5.7-12.4c-2.5-3.1-6.1-5.5-10.6-7.2c-2.6-1.1-5.7-1.9-9.3-2.3
			c-3.6-0.4-7.4-0.7-11.3-0.7s-7.8,0.2-11.5,0.7c-3.7,0.4-6.9,1.1-9.5,2c-3.7,1.3-7.3,3.2-10.8,5.6c-1.8,1.3-3.3,3-4.7,5.1
			c-1.4,2.1-2.7,4.3-3.8,6.7c-0.7,1.8-1.3,3.6-1.8,5.6c-0.5,2-1.6,3.5-3.1,4.6c-0.9,0.7-2.3,1.1-4.4,1.5c-2.1,0.3-4.2,0.5-6.4,0.5
			c-2.2,0-4.3-0.2-6.4-0.5c-2.1-0.3-3.6-0.8-4.4-1.5c-0.9-0.7-1.5-1.7-2-3.3c-0.4-1.5-0.4-3.2,0-4.9c0.7-2.8,1.4-5.5,2.1-8
			c0.8-2.5,1.7-5,2.8-7.4c4.1-7.6,9.4-13.6,15.7-17.8c6.3-4.3,14.2-7.7,23.6-10.3c2.2-0.4,4.4-0.8,6.7-1c2.3-0.2,4.6-0.5,7-1
			c0.9-0.2,2.3-0.3,4.3-0.2c2,0.1,3.2-0.1,3.6-0.5c15.3-0.2,28.6,1.5,40,5.2c11.4,3.7,19.3,10.8,23.9,21.3c2,4.4,3.1,9.4,3.4,15.2
			c0.3,5.8,0.5,11.8,0.5,18.2v72.4c0,3.1,0.1,6,0.3,8.8c0.2,2.8,0.9,5.1,2,6.9c1.1,1.5,2.5,2.6,4.3,3.3c2,0.9,3.8,1.5,5.6,1.8
			c1.7,0.3,3.1,1.4,3.9,3.1c0.4,0.7,0.7,1.3,0.7,2S1322.2,568.7,1322.4,569.8z M1275.6,533.4c1.3-3.1,2-6.6,2.1-10.6
			c0.1-4,0.2-8.2,0.2-12.6c0-2.4-0.1-4.6-0.3-6.5c-0.2-2-1.1-3.5-2.6-4.6c-0.7-0.4-2.2-0.7-4.6-0.7c-0.4,0.4-1.2,0.7-2.3,0.7
			c-1.1,0-2.1,0.2-2.9,0.7c-1.8,0.4-3.7,0.9-5.9,1.3c-2.2,0.4-4.4,0.9-6.6,1.3c-0.7,0-1.4,0.1-2.1,0.2c-0.8,0.1-1.6,0.2-2.5,0.2
			c-3.3,0.9-6.8,1.4-10.6,1.5c-3.8,0.1-7.4,0.6-10.6,1.5c-1.8,0.4-3.3,0.8-4.7,1.1c-1.4,0.3-3,0.7-4.8,1.1c-3.5,1.1-6.8,2.5-9.8,4.1
			c-3.1,1.6-5.7,3.7-7.9,6.1c-2.2,2.4-3.8,5.3-4.9,8.7c-1.1,3.4-1.5,7.5-1.3,12.3c0,2.2,0.4,4.2,1.1,6.1c0.8,1.9,1.7,3.6,2.8,5.1
			c1.7,2.4,4,4.4,6.9,6.1c2.8,1.6,5.9,3,9.2,4.1c1.1,0.2,2.2,0.3,3.3,0.3c1.1,0,2.2,0.1,3.3,0.3c1.5,0.4,3.4,0.7,5.7,0.8
			c2.3,0.1,4.2-0.1,5.7-0.5c1.3-0.4,2.6-0.6,3.9-0.5c1.3,0.1,2.6-0.1,3.9-0.5c1.7-0.4,3.4-0.8,5.1-1c1.6-0.2,3.2-0.7,4.8-1.3
			c6.3-2.6,11.7-5.8,16.2-9.5C1269.8,544.8,1273.2,539.7,1275.6,533.4z"/>
		<path class="st1" d="M1427.6,409.3c5,0,7.9,1.3,8.5,3.8c0.7,2.5,1,6.2,1,11c0,2.2,0,4.3,0,6.2c0,2-0.5,3.6-1.6,4.9
			c-1.3,1.8-3.2,2.7-5.6,2.8c-2.4,0.1-4.8,0.5-7.2,1.1c-3.1,0.7-6,1.3-8.7,2c-2.7,0.7-5.3,1.5-7.7,2.6c-6.3,2.8-11.5,6.7-15.4,11.6
			c-3.9,4.9-7.3,10.5-10.2,16.9c-0.9,2.4-1.5,4.9-2,7.4c-0.4,2.5-1,5.1-1.6,7.7c-0.2,1.1-0.3,2.2-0.2,3.3c0.1,1.1,0.1,2.2-0.2,3.3
			c-0.7,2.6-0.9,5.6-0.8,9c0.1,3.4,0.2,6.6,0.2,9.7v40.3c0,2.4,0,4.9,0,7.5s-0.1,5.1-0.3,7.5c-0.2,2.4-0.3,4.5-0.2,6.2
			c0.1,1.8-0.4,3.3-1.5,4.6c-1.1,1.5-2.8,2.4-5.1,2.6c-2.3,0.2-4.7,0.3-7.4,0.3h-5.9c-1.1-0.4-2.1-0.8-3.1-1.1
			c-1-0.3-1.7-0.8-2.1-1.5c-1.1-1.5-1.7-3.4-1.8-5.7c-0.1-2.3-0.2-4.6-0.2-7v-25.2v-90.7v-22.6c0-2.4,0.1-4.6,0.2-6.7
			c0.1-2.1,0.7-3.9,1.8-5.4c0.7-0.9,1.8-1.5,3.4-2c1.6-0.4,3.4-0.7,5.4-0.8c2-0.1,3.9-0.1,5.9,0.2c2,0.2,3.5,0.5,4.6,1
			c1.7,0.7,2.9,1.9,3.4,3.8c0.5,1.9,0.8,3.8,0.8,5.9c0,2.1,0,4.3,0,6.5c0,2.3,0.4,4.3,1.3,6.1c0.2,0.4,0.4,0.8,0.7,1
			c0.2,0.2,0.5,0.5,1,1c2.4,0,4.4-1,5.9-3.1c1.5-2.1,2.8-3.8,3.9-5.1l2-2c2-2.4,4.7-4.9,8.2-7.5c3.5-2.6,6.8-4.6,9.8-5.9
			c2-1.1,4-1.9,6.2-2.5c2.2-0.5,4.5-1.1,6.9-1.8c1.3-0.2,2.6-0.4,3.9-0.5C1425.3,409.7,1426.5,409.5,1427.6,409.3z"/>
		<path class="st1" d="M1607.4,569.8c0.7,3.5,0.3,6.4-1,8.7c-1.3,2.3-3.1,4-5.2,5.1c-1.1,0.4-2.2,0.7-3.4,0.7
			c-1.2,0-2.5,0.2-3.8,0.7c-4.8,1.1-9.6,0.8-14.2-0.8c-4.7-1.6-7.9-3.7-9.7-6.1c-1.1-1.5-2.1-3.3-2.9-5.4c-0.9-2.1-2-3.8-3.3-5.1
			c-0.4-0.4-0.9-0.9-1.5-1.3c-0.5-0.4-1.3-0.5-2.1-0.3c-2.4,0.7-4.6,1.9-6.7,3.6c-2.1,1.8-4.1,3.3-6.1,4.6c-2.8,1.8-5.9,3.3-9.2,4.7
			c-3.3,1.4-6.8,2.7-10.5,3.8c-2.2,0.7-4.5,1.1-7,1.3c-2.5,0.2-5,0.5-7.4,1c-1.1,0.2-2,0.3-2.8,0.3c-0.8,0-1.6,0-2.5,0
			c-2.4,0.4-4.7,0.4-6.9,0h-2.9c-1.1-0.2-2.2-0.3-3.3-0.3c-1.1,0-2.1-0.2-2.9-0.7c-0.9-0.2-1.6-0.3-2.1-0.2
			c-0.5,0.1-1.1,0.1-1.8-0.2c-1.8-0.4-3.5-0.8-5.2-1.1c-1.8-0.3-3.4-0.8-4.9-1.5c-6.6-2.8-11.8-6.1-15.9-9.7c-4-3.6-7.4-8.7-10-15.2
			c-2-4.8-2.9-10.6-2.9-17.4v-6.9c0.2-1.1,0.4-2.2,0.5-3.4c0.1-1.2,0.3-2.5,0.5-3.8c0.9-2.4,1.7-4.8,2.6-7.2c0.9-2.4,2-4.6,3.3-6.6
			c3.9-6.3,9.3-11,16-14.1c6.8-3.1,14.2-5.8,22.3-8.2c3.1-0.9,6.2-1.5,9.5-2c3.3-0.4,6.6-1,9.8-1.6c1.5-0.4,3-0.7,4.4-0.7
			c1.4,0,3-0.2,4.7-0.7c1.5-0.4,3.1-0.7,4.6-0.8c1.5-0.1,3.2-0.4,4.9-0.8c5.5-1.3,10.6-2.5,15.4-3.4c4.8-1,8.6-3.4,11.5-7.4
			c1.3-1.7,2.4-4,3.3-6.7c0.9-2.7,0.9-5.7,0-9c-1.3-5.2-3.2-9.4-5.7-12.4c-2.5-3.1-6.1-5.5-10.6-7.2c-2.6-1.1-5.7-1.9-9.3-2.3
			c-3.6-0.4-7.4-0.7-11.3-0.7c-3.9,0-7.8,0.2-11.5,0.7c-3.7,0.4-6.9,1.1-9.5,2c-3.7,1.3-7.3,3.2-10.8,5.6c-1.8,1.3-3.3,3-4.8,5.1
			c-1.4,2.1-2.7,4.3-3.8,6.7c-0.7,1.8-1.3,3.6-1.8,5.6c-0.5,2-1.6,3.5-3.1,4.6c-0.9,0.7-2.3,1.1-4.4,1.5c-2.1,0.3-4.2,0.5-6.4,0.5
			c-2.2,0-4.3-0.2-6.4-0.5c-2.1-0.3-3.6-0.8-4.4-1.5c-0.9-0.7-1.5-1.7-2-3.3c-0.4-1.5-0.4-3.2,0-4.9c0.7-2.8,1.4-5.5,2.1-8
			c0.8-2.5,1.7-5,2.8-7.4c4.1-7.6,9.4-13.6,15.7-17.8c6.3-4.3,14.2-7.7,23.6-10.3c2.2-0.4,4.4-0.8,6.7-1c2.3-0.2,4.6-0.5,7-1
			c0.9-0.2,2.3-0.3,4.3-0.2c2,0.1,3.2-0.1,3.6-0.5c15.3-0.2,28.6,1.5,40,5.2c11.3,3.7,19.3,10.8,23.9,21.3c2,4.4,3.1,9.4,3.4,15.2
			c0.3,5.8,0.5,11.8,0.5,18.2v72.4c0,3.1,0.1,6,0.3,8.8c0.2,2.8,0.9,5.1,2,6.9c1.1,1.5,2.5,2.6,4.3,3.3c2,0.9,3.8,1.5,5.6,1.8
			c1.7,0.3,3.1,1.4,3.9,3.1c0.4,0.7,0.7,1.3,0.7,2S1607.1,568.7,1607.4,569.8z M1560.5,533.4c1.3-3.1,2-6.6,2.1-10.6
			c0.1-4,0.2-8.2,0.2-12.6c0-2.4-0.1-4.6-0.3-6.5c-0.2-2-1.1-3.5-2.6-4.6c-0.7-0.4-2.2-0.7-4.6-0.7c-0.4,0.4-1.2,0.7-2.3,0.7
			c-1.1,0-2.1,0.2-2.9,0.7c-1.8,0.4-3.7,0.9-5.9,1.3c-2.2,0.4-4.4,0.9-6.6,1.3c-0.7,0-1.4,0.1-2.1,0.2c-0.8,0.1-1.6,0.2-2.5,0.2
			c-3.3,0.9-6.8,1.4-10.6,1.5c-3.8,0.1-7.4,0.6-10.6,1.5c-1.8,0.4-3.3,0.8-4.8,1.1c-1.4,0.3-3,0.7-4.7,1.1c-3.5,1.1-6.8,2.5-9.8,4.1
			c-3.1,1.6-5.7,3.7-7.9,6.1c-2.2,2.4-3.8,5.3-4.9,8.7c-1.1,3.4-1.5,7.5-1.3,12.3c0,2.2,0.4,4.2,1.1,6.1c0.8,1.9,1.7,3.6,2.8,5.1
			c1.7,2.4,4,4.4,6.9,6.1c2.8,1.6,5.9,3,9.2,4.1c1.1,0.2,2.2,0.3,3.3,0.3c1.1,0,2.2,0.1,3.3,0.3c1.5,0.4,3.4,0.7,5.7,0.8
			c2.3,0.1,4.2-0.1,5.7-0.5c1.3-0.4,2.6-0.6,3.9-0.5c1.3,0.1,2.6-0.1,3.9-0.5c1.7-0.4,3.4-0.8,5.1-1c1.6-0.2,3.2-0.7,4.7-1.3
			c6.3-2.6,11.7-5.8,16.2-9.5C1554.7,544.8,1558.1,539.7,1560.5,533.4z"/>
		<path class="st1" d="M1734.1,343.5c15.1-0.4,28.3,0.9,39.6,4.1c11.3,3.2,21.4,7.8,30.1,13.9c3.9,2.6,7.5,5.6,10.8,8.8
			c0.4,0.4,0.9,0.9,1.3,1.3c0.4,0.4,0.9,0.9,1.3,1.3c1.1,1.8,2.3,3.3,3.6,4.7c1.3,1.4,2.5,3,3.6,4.7c2.4,3.7,4.5,7.6,6.2,11.8
			c1.7,4.2,3.5,8.4,5.2,12.8c0.7,2.2,1,4.5,1,6.9c0,2.4-0.9,4.1-2.6,5.2c-0.4,0.4-1,0.7-1.8,0.7c-0.8,0-1.5,0.1-2.1,0.3h-2.3
			c-1.1,0.4-2.9,0.7-5.4,0.7c-2.5,0-4.3-0.2-5.4-0.7c-0.7-0.2-1.3-0.2-2,0c-0.7,0.2-1.4,0.1-2.3-0.3c-1.3-0.2-2.5-0.8-3.6-1.6
			c-1.3-1.1-2.2-2.6-2.8-4.6c-0.5-2-1.3-3.8-2.1-5.6c-1.1-2.8-2.3-5.5-3.8-8c-1.4-2.5-3-5-4.7-7.4c-0.4-0.4-1-0.9-1.6-1.5
			c-0.7-0.5-1.2-1.1-1.6-1.8c-2-2.2-3.9-4-5.9-5.6c-1.1-0.7-2.1-1.4-2.9-2.1c-0.9-0.8-1.9-1.5-2.9-2.1c-3.1-1.7-6.3-3.3-9.8-4.6
			c-3.5-1.3-7.1-2.5-10.8-3.6c-2-0.4-3.9-0.8-5.9-1c-2-0.2-3.9-0.5-5.9-1c-0.9-0.2-1.7-0.3-2.5-0.2c-0.8,0.1-1.5,0.1-2.1-0.2h-3.9
			c-1.5,0-3.1,0-4.6,0c-1.5,0-2.9,0.1-4.3,0.3c-0.4,0-1,0.1-1.6,0.2c-0.7,0.1-1.2,0.2-1.6,0.2c-1.3,0.2-2.7,0.4-4.1,0.7
			c-1.4,0.2-2.8,0.4-4.1,0.7c-7.6,2-14.3,4.7-20,8.2c-9.2,5.7-16.5,12.4-22.1,20.1c-5.6,7.8-10.2,17.2-13.9,28.3
			c-0.9,2.4-1.5,4.9-2,7.5c-0.4,2.6-1,5.2-1.6,7.9c-0.4,1.1-0.6,2.1-0.5,3.1c0.1,1-0.1,2-0.5,3.1c-0.4,1.5-0.6,3.1-0.5,4.7
			c0.1,1.6-0.1,3.3-0.5,5.1v3.6c-0.2,1.3-0.3,3.2-0.3,5.6c0,2.4,0.1,4.2,0.3,5.2v3.3c0.2,0.4,0.3,1,0.3,1.8c0,0.8,0.1,1.4,0.3,1.8
			c0.4,1.5,0.5,2.9,0.3,4.3c-0.2,1.3-0.1,2.7,0.3,4.3c0.4,1.8,0.8,3.4,1.1,5.1c0.3,1.6,0.7,3.3,1.1,5.1c1.1,3.3,2.2,6.5,3.4,9.7
			c1.2,3.2,2.5,6.3,3.8,9.3c1.1,2.6,2.5,5.1,4.1,7.5c1.6,2.4,3.3,4.7,5.1,6.9c8.1,10.9,18.7,19,31.8,24.2c1.5,0.7,3.1,1.2,4.6,1.6
			c1.5,0.4,3.2,0.9,4.9,1.3c5.2,1.5,11.4,2.3,18.3,2.3c1.5,0,3,0,4.4,0c1.4,0,2.8-0.1,4.1-0.3c1.1-0.4,2.2-0.5,3.4-0.3
			c1.2,0.2,2.3,0.1,3.4-0.3c3.1-0.9,5.9-1.6,8.7-2.1c2.7-0.5,5.3-1.4,7.7-2.5c20.3-8.1,33.9-22.6,40.9-43.6c0.4-1.7,0.8-3.5,1.1-5.2
			c0.3-1.7,0.7-3.5,1.1-5.2c0.7-2.6,0.9-5.5,0.7-8.7c-0.2-3.2-1.2-5.4-2.9-6.7c-1.8-1.1-4.2-1.6-7.2-1.6c-3.1,0-6,0-8.8,0H1758
			c-2.4,0-5,0-7.9,0c-2.8,0-5.1-0.3-6.9-1c-1.8-0.9-2.8-2.1-3.3-3.6c-0.4-0.9-0.8-2.1-1-3.8c-0.2-1.6-0.3-3.3-0.3-5.1
			c0-1.7,0.2-3.4,0.5-5.1c0.3-1.6,0.7-2.8,1.1-3.4c0.9-1.5,2.4-2.6,4.6-3.3c1.1-0.4,2.4-0.7,3.9-0.7c1.5,0,3.1,0,4.6,0h14.7h49.8
			c2.4,0,4.8-0.1,7.2-0.2c2.4-0.1,4.6,0,6.7,0.3c2.1,0.3,3.9,0.9,5.4,1.6c1.5,0.8,2.6,2.1,3.3,4.1c0.4,1.3,0.6,2.8,0.5,4.6
			c-0.1,1.8-0.2,3.5-0.2,5.2v18v60.6v15.1c0,1.5,0,3.1,0,4.6c0,1.5-0.2,2.8-0.7,3.9c-0.7,1.8-2,3.1-3.9,3.9
			c-0.7,0.4-2.1,0.7-4.3,0.7c-3.1,0-5.4-0.3-6.9-1c-1.5-0.7-2.7-1.6-3.6-2.9c-0.9-1.3-1.6-2.8-2.1-4.6c-0.5-1.7-1.1-3.7-1.8-5.9
			c-0.4-1.5-1.1-3.5-2.1-5.9c-1-2.4-2.7-3.3-5.1-2.6c-1.5,0.4-2.7,1.1-3.6,2c-0.9,0.9-1.9,1.8-2.9,2.6c-1.8,1.3-3.4,2.7-4.9,4.1
			c-1.5,1.4-3.2,2.7-4.9,3.8c-4.6,3.1-9.4,5.6-14.6,7.5c-5.1,2-10.6,3.8-16.5,5.6c-1.5,0.4-3.1,0.8-4.6,1c-1.5,0.2-3.2,0.5-4.9,1
			c-1.8,0-3.1,0.1-3.9,0.3c-0.7,0-1.4,0-2.1,0c-0.8,0-1.5,0.1-2.1,0.3h-3.3c-0.9,0.2-2.1,0.3-3.6,0.3c-1.5,0-2.8-0.1-3.9-0.3h-5.6
			c-2.4-0.4-4.6-0.7-6.7-0.8c-2.1-0.1-4.2-0.5-6.4-1.1c-3.9-1.1-7.8-2.1-11.5-2.9c-3.7-0.9-7.3-2.1-10.8-3.6
			c-12.4-5.7-23.4-13.3-32.8-22.8c-9.4-9.5-16.9-20.6-22.6-33.2c-1.1-2.6-2.1-5.3-3.1-8.2c-1-2.8-2-5.8-3.1-8.8
			c-0.2-0.9-0.3-1.7-0.3-2.5c0-0.8-0.2-1.6-0.7-2.5c-0.7-2.4-1.1-4.9-1.5-7.5c-0.3-2.6-0.8-5.2-1.5-7.9c-0.2-0.9-0.3-1.7-0.2-2.6
			c0.1-0.9,0.1-1.6-0.2-2.3v-2.9c-0.4-1.1-0.7-3.2-0.7-6.2c0-3.1,0.2-5.2,0.7-6.6v-2.9c0-1.3,0-2.6,0-3.9s0.1-2.6,0.3-3.9
			c0.2-1.1,0.3-2.2,0.3-3.4c0-1.2,0.1-2.3,0.3-3.4c0.7-2.6,1.1-5.2,1.5-7.9c0.3-2.6,0.8-5.2,1.5-7.9c2.2-7.2,4.4-14.1,6.7-20.8
			c2.3-6.7,5.3-12.8,9-18.5c6.6-10.3,14.4-19,23.4-26.4c9.1-7.3,19.8-13,32.3-17.2c2.4-0.9,4.7-1.5,7-1.8c2.3-0.3,4.6-0.8,7-1.5
			c1.1-0.4,2.1-0.7,3.1-0.7s2-0.1,3.1-0.3c1.7-0.2,3.5-0.4,5.4-0.5C1730.6,343.5,1732.4,343.5,1734.1,343.5z"/>
	</g>
	<g>
		<path class="st1" d="M730.8,681.7c0,0.4,0,0.8,0,1.3c0,0.5,0,0.9-0.1,1.2v0.7c0,0.1-0.1,0.3,0,0.5c0,0.2,0,0.3,0,0.4
			c0,0.2-0.1,0.5-0.1,0.8c0,0.3,0,0.5-0.1,0.8c-0.1,0.7-0.2,1.4-0.3,2.2c0,0.8-0.2,1.5-0.4,2.2c-0.1,0.6-0.3,1.2-0.5,1.8
			c-0.2,0.6-0.4,1.2-0.6,1.8c-0.8,2.1-1.9,4-3.1,5.7c-1.3,1.7-2.8,3.2-4.7,4.3c-0.9,0.6-1.9,1.1-3,1.5c-1.1,0.4-2.2,0.8-3.4,1.2
			c-0.5,0.2-1.1,0.3-1.7,0.4c-0.6,0.1-1.2,0.2-1.8,0.3c-0.5,0.1-1.1,0.1-1.6,0.1c-0.5,0-1,0-1.5,0.1h-1c-0.1,0-0.3,0.1-0.5,0
			c-0.2,0-0.4,0-0.6,0h-14.8c-0.7,0-1.4,0-2-0.1c-0.6-0.1-1-0.4-1.1-0.9c-0.2-0.4-0.3-1-0.3-1.7c0-0.7,0-1.4,0-2v-43.8
			c0-0.6,0-1.2,0-1.9c0-0.7,0.1-1.2,0.3-1.6c0.2-0.3,0.6-0.6,1.1-0.7c0.1,0,0.2-0.1,0.3,0c0.1,0,0.2,0,0.3,0h16.1c0.2,0,0.5,0,0.7,0
			c0.2,0,0.4,0,0.6,0c0.2,0.1,0.5,0.1,0.8,0.1c0.3,0,0.5,0,0.8,0c0.2,0,0.5,0.1,0.8,0.1c0.3,0,0.6,0,0.8,0.1c0.2,0,0.5,0.1,0.7,0.1
			c0.2,0,0.5,0,0.7,0.1c0.5,0.1,1.1,0.2,1.6,0.3c0.5,0.1,1,0.2,1.5,0.3c1.1,0.3,2.1,0.7,3.1,1c1,0.3,1.9,0.8,2.7,1.3
			c0.7,0.4,1.3,0.8,1.9,1.2c0.1,0.1,0.3,0.2,0.4,0.3c0.1,0.1,0.3,0.2,0.4,0.3c0.3,0.2,0.6,0.5,0.8,0.7c0.2,0.2,0.5,0.5,0.7,0.7
			c0.2,0.2,0.4,0.4,0.6,0.5c0.2,0.3,0.4,0.6,0.6,0.8c0.2,0.2,0.4,0.5,0.6,0.8c0.2,0.3,0.5,0.6,0.6,0.9c0.2,0.3,0.4,0.7,0.6,1
			c0.1,0.2,0.2,0.4,0.2,0.5c0,0.1,0.1,0.3,0.2,0.5c0.2,0.4,0.4,0.8,0.5,1.1c0.1,0.4,0.3,0.8,0.5,1.1c0.2,0.5,0.4,1.1,0.5,1.7
			c0.1,0.6,0.3,1.1,0.4,1.7c0.1,0.3,0.1,0.6,0.1,0.9c0,0.3,0,0.6,0.1,0.9c0.2,0.9,0.4,1.9,0.4,2.9
			C730.8,679.6,730.8,680.7,730.8,681.7z M723.8,685.5c0.1-0.5,0.1-1,0.1-1.6c0-0.6,0-1.1,0-1.7c0-0.4,0-0.8,0-1.1
			c0-0.4,0-0.7-0.1-1.1c0-0.1,0-0.3,0-0.4c0-0.1,0-0.3,0-0.5c-0.1-0.5-0.2-1.1-0.2-1.6c0-0.5-0.1-1.1-0.3-1.6
			c-0.1-0.4-0.2-0.8-0.3-1.1c-0.1-0.4-0.2-0.8-0.3-1.1c-0.5-1.8-1.2-3.3-2.1-4.7c-1.4-2.2-3.4-3.9-6.2-5c-0.4-0.2-0.9-0.4-1.4-0.6
			c-0.5-0.1-1-0.3-1.6-0.4c-0.5-0.1-1.1-0.2-1.7-0.3c-0.6,0-1.1-0.1-1.7-0.2h-1.6c-0.1,0-0.3-0.1-0.5-0.1c-0.2,0-0.4,0-0.6,0h-9
			c-0.1,0-0.2,0.1-0.4,0c-0.1,0-0.3,0-0.4,0c-0.2,0.1-0.5,0.2-0.7,0.3c-0.2,0.1-0.4,0.2-0.5,0.4c-0.1,0.2-0.2,0.5-0.3,1v0.6
			c0,0.2-0.1,0.4-0.1,0.7s0,0.5,0,0.7v33.7c0,0.2,0,0.5,0,0.7s0,0.4,0.1,0.6v0.6c0.1,0.5,0.2,0.8,0.3,1c0.4,0.6,1.1,0.9,2.2,0.9
			c1.1,0,2.1,0,3.1,0h4.3c0.3,0,0.7,0,1.1,0c0.4,0,0.7,0,1-0.1h0.8c0.2,0,0.5-0.1,0.8,0c0.3,0,0.6,0,0.9,0c0.3-0.1,0.6-0.2,0.9-0.2
			c0.3,0,0.6-0.1,1-0.2c0.5-0.1,1.1-0.3,1.6-0.4c0.5-0.1,1-0.3,1.6-0.6c1.8-0.8,3.4-1.9,4.7-3.2c1.3-1.4,2.4-3,3.2-4.9
			c0.2-0.5,0.5-1.1,0.6-1.7c0.2-0.6,0.4-1.2,0.6-1.9c0.1-0.5,0.3-1.1,0.3-1.7c0.1-0.6,0.2-1.2,0.3-1.8c0-0.2,0.1-0.5,0.1-0.6
			C723.8,685.9,723.8,685.7,723.8,685.5z"/>
		<path class="st1" d="M752.7,656.6h24.2h6.4c0.5,0,1.1,0,1.6,0c0.5,0,1,0.1,1.3,0.3c0.1,0.1,0.3,0.2,0.4,0.4
			c0.1,0.1,0.2,0.3,0.3,0.4c0.1,0.3,0.1,0.9,0.1,1.7c0,0.8,0,1.3-0.1,1.7c-0.2,0.7-0.6,1.1-1.3,1.1c-0.6,0.1-1.4,0.1-2.3,0.1H776
			h-12.5c-0.8,0-1.7,0-2.8,0c-1.1,0-1.8,0.1-2.3,0.4c-0.5,0.3-0.8,0.8-0.8,1.6c0,0.7,0,1.5,0,2.3v7.6c0,0.5,0,1.2,0,1.9
			c0,0.7,0,1.3,0.1,1.8c0.1,0.6,0.4,1,0.9,1.2c0.2,0.1,0.5,0.2,1,0.3h0.7c0.2,0,0.4,0.1,0.6,0c0.2,0,0.5,0,0.7,0h2.5h14.5
			c0.4,0,0.9,0,1.5,0c0.5,0,1.1,0,1.7,0c0.6,0,1.1,0.1,1.6,0.1c0.5,0.1,0.8,0.2,1.1,0.3c0.1,0.1,0.3,0.3,0.4,0.7
			c0.1,0.3,0.2,0.7,0.2,1.1c0,0.4,0.1,0.8,0,1.2c0,0.4-0.1,0.8-0.2,1.1c-0.1,0.4-0.3,0.8-0.7,1c-0.1,0.1-0.2,0.2-0.4,0.2
			c-0.2,0-0.3,0.1-0.5,0.1h-0.4c-0.2,0-0.5,0.1-0.7,0c-0.2,0-0.5,0-0.7,0h-2.7h-15.6c-0.6,0-1.2,0-1.7,0c-0.6,0-1.1,0-1.6,0.1
			c-0.5,0.1-0.9,0.2-1.3,0.4c-0.4,0.2-0.6,0.5-0.8,1c-0.1,0.3-0.1,0.6-0.1,1c0,0.4,0,0.8,0,1.2v4.2v7c0,0.7,0,1.3,0.1,1.9
			c0,0.6,0.2,1,0.6,1.2c0.3,0.2,0.7,0.4,1.2,0.4c0.4,0,0.9,0,1.5,0h4.7h13.7h4.2c0.4,0,0.8,0,1.2,0c0.4,0,0.7,0,1,0.1
			c0.6,0.2,1,0.5,1.2,0.8c0.1,0.1,0.2,0.4,0.2,0.7c0,0.3,0.1,0.7,0.1,1.1c0,0.4,0,0.7,0,1.1c0,0.4-0.1,0.7-0.1,0.9
			c-0.2,0.4-0.4,0.7-0.7,0.8c-0.3,0.2-0.7,0.3-1.1,0.3c-0.5,0-0.9,0-1.4,0h-5.2h-19.7h-5.2c-0.7,0-1.3,0-1.8-0.1
			c-0.5-0.1-0.9-0.3-1.1-0.7c-0.2-0.3-0.3-0.7-0.3-1.1s0-0.9,0-1.4v-5.2V681v-16.6v-4.6c0-0.4,0-0.9,0-1.3s0.1-0.8,0.3-1
			c0.2-0.3,0.6-0.6,1.1-0.7c0.1,0,0.2-0.1,0.3,0C752.5,656.6,752.6,656.6,752.7,656.6z M771,642.3c0.3,0,0.8,0,1.3,0
			c0.5,0,1,0,1.5,0c0.5,0,0.9,0.1,1.3,0.2c0.4,0.1,0.7,0.2,0.8,0.4c0,0.2,0,0.5-0.1,0.8c-0.1,0.3-0.3,0.6-0.6,0.9
			c-0.3,0.3-0.6,0.6-0.8,0.8c-0.2,0.2-0.5,0.5-0.7,0.8c-0.2,0.3-0.5,0.6-0.7,0.9c-0.1,0.2-0.3,0.5-0.6,0.6c-0.2,0.2-0.4,0.4-0.6,0.6
			c-0.1,0.1-0.2,0.2-0.2,0.2c0,0-0.1,0.1-0.2,0.1c-0.2,0.2-0.4,0.5-0.6,0.6c-0.2,0.2-0.4,0.4-0.6,0.6c-0.1,0.2-0.2,0.4-0.4,0.5
			c-0.2,0.1-0.3,0.3-0.5,0.4c-0.2,0.2-0.4,0.5-0.6,0.7c-0.2,0.2-0.5,0.4-0.7,0.6c-0.3,0.2-0.9,0.4-1.7,0.5c-0.8,0.1-1.4,0.1-1.8-0.2
			c-0.1-0.1-0.3-0.3-0.4-0.5c-0.1-0.2-0.1-0.5,0-0.8c0.1-0.4,0.2-0.8,0.4-1.1c0.2-0.3,0.4-0.6,0.7-0.9c0.4-0.7,0.8-1.4,1.3-2.1
			c0.4-0.7,0.9-1.5,1.3-2.1c0.2-0.3,0.4-0.7,0.6-1.1c0.2-0.4,0.5-0.7,0.8-0.9c0.3-0.2,0.7-0.4,1-0.6c0.1,0,0.3,0,0.4,0
			C770.8,642.3,770.9,642.3,771,642.3z"/>
		<path class="st1" d="M803.8,656.6c0.8,0,1.7,0,2.6,0c0.9,0,1.7,0.1,2.1,0.4c0.4,0.3,0.8,0.8,0.9,1.4c0.2,0.6,0.4,1.2,0.6,1.8
			c0.4,1,0.7,2,1,3s0.6,2,1,3c0.1,0.2,0.2,0.5,0.2,0.7c0,0.2,0.1,0.5,0.1,0.7c0.3,0.8,0.7,1.7,0.9,2.6c0.3,0.9,0.6,1.8,0.9,2.8
			c0.7,2,1.4,4,2,6c0.7,2,1.3,4,2,6c0.3,1,0.7,2,0.9,3c0.3,1,0.6,2,1,3c0.1,0.2,0.2,0.5,0.3,0.8c0.1,0.3,0.2,0.6,0.3,0.9
			c0.5,1.4,1,2.9,1.5,4.4c0.2,0.5,0.4,1,0.5,1.5c0.1,0.5,0.4,1,0.7,1.4c0.1,0.1,0.3,0.2,0.5,0.4c0.6,0,1-0.3,1.1-0.8
			c0.1-0.5,0.3-0.9,0.5-1.4c0.5-1.3,1-2.6,1.3-3.9c0.3-1.3,0.8-2.6,1.3-3.9c0.3-0.8,0.6-1.6,0.8-2.4c0.2-0.8,0.5-1.6,0.8-2.4
			c0.2-0.6,0.5-1.2,0.6-1.8c0.2-0.6,0.4-1.2,0.6-1.8c0.7-2.1,1.4-4.2,2.1-6.3c0.6-2.1,1.4-4.2,2.1-6.3c0.1-0.2,0.1-0.4,0.1-0.6
			c0-0.2,0-0.4,0.1-0.6c0.3-0.7,0.6-1.5,0.8-2.3c0.2-0.8,0.5-1.6,0.7-2.3c0.3-0.7,0.6-1.5,0.8-2.3c0.2-0.8,0.5-1.5,0.8-2.3
			c0.1-0.4,0.3-0.9,0.5-1.3c0.2-0.4,0.5-0.8,0.9-1c0.3-0.2,0.7-0.4,1.2-0.4c0.5,0,1,0,1.6,0h1.6c0.4,0.1,0.7,0.2,1,0.3
			s0.5,0.3,0.6,0.7c0,0.1,0,0.2,0,0.3c0,0.1,0,0.2,0,0.3c-0.1,0.5-0.2,1-0.4,1.4c-0.2,0.5-0.3,0.9-0.5,1.3c-0.2,0.4-0.4,0.8-0.5,1.2
			c-0.1,0.4-0.3,0.8-0.4,1.2c-0.3,0.7-0.6,1.4-0.8,2.2c-0.2,0.8-0.5,1.5-0.8,2.2c-0.1,0.2-0.1,0.4-0.1,0.5s0,0.3-0.1,0.5
			c-0.4,0.8-0.7,1.7-1,2.7c-0.3,0.9-0.6,1.8-1,2.7c-0.1,0.2-0.1,0.4-0.1,0.6c0,0.2,0,0.3-0.1,0.5c-0.2,0.6-0.5,1.3-0.7,2
			c-0.2,0.7-0.5,1.3-0.7,2c-0.1,0.1-0.2,0.3-0.2,0.5c0,0.2-0.1,0.4-0.2,0.6c-0.7,1.9-1.4,3.8-2,5.7c-0.6,1.9-1.3,3.8-2,5.7l-0.2,0.7
			c-0.2,0.5-0.4,1.1-0.6,1.6c-0.2,0.5-0.4,1-0.6,1.6c-0.2,0.6-0.5,1.2-0.7,1.8c-0.2,0.6-0.4,1.2-0.7,1.8c-0.1,0.3-0.2,0.6-0.3,0.9
			c-0.1,0.3-0.2,0.6-0.3,0.9c-0.3,0.7-0.6,1.5-0.8,2.3c-0.2,0.8-0.5,1.5-0.8,2.2c-0.2,0.6-0.5,1.3-0.7,2c-0.2,0.7-0.6,1.2-1.1,1.6
			c-0.2,0.1-0.4,0.2-0.7,0.2c-0.2,0-0.5,0.1-0.8,0.1H824c-0.6,0-1.2,0-1.9,0c-0.7,0-1.2-0.1-1.6-0.3c-0.4-0.2-0.7-0.6-0.9-1.1
			c-0.1-0.5-0.3-1-0.6-1.5c-0.3-0.7-0.6-1.5-0.8-2.3c-0.2-0.8-0.5-1.6-0.9-2.4c-0.1-0.2-0.2-0.4-0.2-0.6c0-0.2-0.1-0.4-0.2-0.6
			c-0.4-1-0.8-2-1.1-3c-0.3-1-0.7-2-1.1-2.9c-0.1-0.2-0.2-0.5-0.2-0.7c0-0.2-0.1-0.4-0.2-0.6c-0.2-0.7-0.5-1.4-0.7-2
			c-0.2-0.7-0.5-1.3-0.7-2c-0.1-0.2-0.2-0.4-0.2-0.6c0-0.2-0.1-0.4-0.2-0.6c-0.2-0.6-0.5-1.3-0.7-2s-0.5-1.3-0.7-2
			c-0.2-0.5-0.4-1.1-0.6-1.7c-0.1-0.6-0.3-1.1-0.6-1.7c-0.5-1.4-1-2.8-1.5-4.3c-0.4-1.5-1-2.9-1.6-4.3c-0.2-0.4-0.4-0.9-0.5-1.4
			c-0.1-0.5-0.3-0.9-0.4-1.3c-0.1-0.3-0.3-0.6-0.3-0.9c-0.1-0.3-0.2-0.6-0.3-0.9c-0.4-1.1-0.9-2.3-1.2-3.5c-0.4-1.2-0.8-2.3-1.2-3.5
			c-0.1-0.3-0.2-0.7-0.3-1c-0.1-0.3-0.2-0.7-0.3-1.1c-0.2-0.5-0.2-0.9-0.1-1.3c0.1-0.3,0.5-0.6,1-0.7c0.1,0,0.2-0.1,0.3,0
			C803.6,656.7,803.7,656.7,803.8,656.6z"/>
		<path class="st1" d="M865.5,656.6h24.2h6.4c0.5,0,1.1,0,1.6,0c0.5,0,1,0.1,1.3,0.3c0.1,0.1,0.3,0.2,0.4,0.4
			c0.1,0.1,0.2,0.3,0.3,0.4c0.1,0.3,0.1,0.9,0.1,1.7c0,0.8,0,1.3-0.1,1.7c-0.2,0.7-0.6,1.1-1.3,1.1c-0.6,0.1-1.4,0.1-2.3,0.1h-7.4
			h-12.5c-0.8,0-1.7,0-2.8,0c-1.1,0-1.8,0.1-2.3,0.4c-0.5,0.3-0.8,0.8-0.8,1.6c0,0.7,0,1.5,0,2.3v7.6c0,0.5,0,1.2,0,1.9
			c0,0.7,0,1.3,0.1,1.8c0.1,0.6,0.4,1,0.9,1.2c0.2,0.1,0.5,0.2,1,0.3h0.7c0.2,0,0.4,0.1,0.6,0c0.2,0,0.5,0,0.7,0h2.5h14.5
			c0.4,0,0.9,0,1.5,0c0.5,0,1.1,0,1.7,0c0.6,0,1.1,0.1,1.6,0.1c0.5,0.1,0.8,0.2,1.1,0.3c0.1,0.1,0.3,0.3,0.4,0.7
			c0.1,0.3,0.2,0.7,0.2,1.1c0,0.4,0.1,0.8,0,1.2c0,0.4-0.1,0.8-0.2,1.1c-0.1,0.4-0.3,0.8-0.7,1c-0.1,0.1-0.2,0.2-0.4,0.2
			c-0.2,0-0.3,0.1-0.5,0.1h-0.4c-0.2,0-0.5,0.1-0.7,0c-0.2,0-0.5,0-0.7,0h-2.7h-15.6c-0.6,0-1.2,0-1.7,0c-0.6,0-1.1,0-1.6,0.1
			c-0.5,0.1-0.9,0.2-1.3,0.4c-0.4,0.2-0.6,0.5-0.8,1c-0.1,0.3-0.1,0.6-0.1,1c0,0.4,0,0.8,0,1.2v4.2v7c0,0.7,0,1.3,0.1,1.9
			c0,0.6,0.2,1,0.6,1.2c0.3,0.2,0.7,0.4,1.2,0.4c0.4,0,0.9,0,1.5,0h4.7h13.7h4.2c0.4,0,0.8,0,1.2,0c0.4,0,0.7,0,1,0.1
			c0.6,0.2,1,0.5,1.2,0.8c0.1,0.1,0.2,0.4,0.2,0.7c0,0.3,0.1,0.7,0.1,1.1c0,0.4,0,0.7,0,1.1c0,0.4-0.1,0.7-0.1,0.9
			c-0.2,0.4-0.4,0.7-0.7,0.8c-0.3,0.2-0.7,0.3-1.1,0.3c-0.5,0-0.9,0-1.4,0h-5.2h-19.7h-5.2c-0.7,0-1.3,0-1.8-0.1
			c-0.5-0.1-0.9-0.3-1.1-0.7c-0.2-0.3-0.3-0.7-0.3-1.1s0-0.9,0-1.4v-5.2V681v-16.6v-4.6c0-0.4,0-0.9,0-1.3s0.1-0.8,0.3-1
			c0.2-0.3,0.6-0.6,1.1-0.7c0.1,0,0.2-0.1,0.3,0C865.3,656.6,865.4,656.6,865.5,656.6z"/>
		<path class="st1" d="M922.1,656.6c0.3,0,0.7,0,1.2,0c0.4,0,0.9,0,1.3,0c0.4,0,0.8,0.1,1.1,0.2c0.3,0.1,0.6,0.2,0.7,0.4
			c0.3,0.4,0.4,0.9,0.4,1.6c0,0.6,0,1.3,0,2v7.8v23.8v6.8c0,0.5,0,1.1,0,1.8c0,0.6,0.1,1.2,0.2,1.6c0.1,0.3,0.4,0.6,0.8,0.9
			c0.2,0.1,0.6,0.2,1,0.2c0.4,0,0.8,0,1.2,0h3.8h13.3h4.2c0.3,0,0.7,0,1.1,0c0.4,0,0.7,0,1,0.1c0.6,0.2,1.1,0.5,1.3,0.8
			c0,0.1,0.1,0.4,0.1,0.7s0.1,0.7,0.1,1.1c0,0.4,0,0.7,0,1.1c0,0.4-0.1,0.7-0.1,0.9c-0.1,0.3-0.3,0.6-0.7,0.8
			c-0.2,0.2-0.6,0.3-1.1,0.3s-0.9,0-1.4,0h-4.9H928h-4.8c-0.7,0-1.3,0-1.8-0.1c-0.5-0.1-0.9-0.3-1.1-0.7c-0.2-0.3-0.3-0.7-0.3-1.1
			s0-0.9,0-1.4v-5.3v-20.2v-16.1v-4.6c0-0.4,0-0.9,0-1.3c0-0.4,0.1-0.8,0.3-1c0.2-0.3,0.6-0.5,1.1-0.7c0.1,0,0.2-0.1,0.3,0
			C921.9,656.6,922,656.6,922.1,656.6z"/>
		<path class="st1" d="M1019.8,681.9c0,0.2,0.1,0.6,0.1,1.1c0,0.5,0,0.8-0.1,1.1v0.9c-0.1,0.5-0.1,1-0.1,1.5c0,0.5,0,1-0.1,1.4
			c-0.1,0.4-0.2,0.8-0.2,1.1c0,0.3-0.1,0.7-0.1,1.1c-0.2,0.8-0.5,1.7-0.7,2.4c-0.2,0.8-0.4,1.6-0.7,2.3c-1.5,3.6-3.4,6.6-5.8,9
			c-2.4,2.4-5.5,4.3-9.4,5.6c-0.5,0.1-1.1,0.3-1.6,0.4c-0.5,0.1-1.1,0.2-1.6,0.4c-0.2,0-0.5,0.1-0.7,0.1s-0.4,0-0.6,0.1l-2.4,0.2
			c-0.1,0-0.5,0.1-1,0c-0.5,0-0.9-0.1-1-0.1c-0.2,0-0.5-0.1-0.7,0c-0.2,0-0.4,0-0.6,0h-0.8c-0.3-0.1-0.7-0.2-1-0.2
			c-0.3,0-0.7-0.1-1-0.1c-0.5-0.1-1-0.3-1.4-0.3c-0.5-0.1-1-0.2-1.4-0.3c-0.5-0.2-1-0.4-1.5-0.6s-1-0.4-1.5-0.6
			c-3-1.3-5.5-3.2-7.4-5.5c-2-2.3-3.6-5.1-4.9-8.2c-0.3-0.7-0.5-1.4-0.7-2.1s-0.3-1.5-0.6-2.3c-0.1-0.2-0.1-0.4-0.1-0.5
			c0-0.1,0-0.3-0.1-0.6c-0.1-0.3-0.1-0.7-0.1-1.1s-0.1-0.8-0.1-1.2c-0.1-0.2-0.1-0.4-0.1-0.6c0-0.2,0-0.4,0-0.5v-1.6
			c-0.1-0.2-0.1-0.6-0.1-1c0-0.4,0-0.8,0.1-1v-1l0.2-2.7c0.1-0.3,0.1-0.6,0.1-0.9c0-0.3,0-0.6,0.1-0.9c0.2-0.8,0.4-1.6,0.5-2.3
			c0.1-0.8,0.4-1.5,0.7-2.2c0.4-0.9,0.8-1.9,1.1-2.7c0.3-0.9,0.8-1.7,1.3-2.5c1.4-2.2,3-4.2,4.9-5.8c1.9-1.6,4.1-3,6.7-4
			c0.5-0.2,1.1-0.4,1.7-0.6s1.2-0.3,1.9-0.5c0.3-0.1,0.6-0.1,0.9-0.1s0.6,0,0.9-0.1c0.4,0,0.8-0.1,1.1-0.1c0.4,0,0.8-0.1,1.1-0.1
			c0.1,0,0.2,0,0.4,0c0.1,0,0.3,0,0.4,0c3.3-0.1,6.2,0.2,8.7,1c2.5,0.8,4.6,1.8,6.5,3.2c0.7,0.5,1.5,1,2.2,1.6
			c0.7,0.5,1.3,1.2,1.9,1.9c0.1,0.2,0.3,0.4,0.5,0.6s0.4,0.3,0.5,0.6c0.3,0.4,0.6,0.8,0.9,1.2c0.3,0.4,0.6,0.8,0.8,1.2
			c0.1,0.2,0.2,0.5,0.3,0.6c0.1,0.2,0.2,0.4,0.4,0.6c0.2,0.3,0.4,0.6,0.5,0.9c0.4,0.9,0.8,1.8,1.2,2.8c0.1,0.3,0.2,0.6,0.3,0.9
			c0.1,0.3,0.2,0.6,0.3,0.9c0.1,0.5,0.3,1,0.4,1.5c0.1,0.5,0.3,1.1,0.4,1.6c0.1,0.2,0.1,0.5,0.1,0.7c0,0.2,0,0.5,0.1,0.7
			c0.1,0.3,0.1,0.7,0.1,1s0,0.7,0.1,1.1v0.4c0,0.2,0,0.5,0,0.7S1019.7,681.7,1019.8,681.9z M1012.9,684.3c0.1-0.2,0.1-0.7,0.1-1.3
			c0-0.6-0.1-1-0.1-1.3v-0.6c0-0.2,0-0.5,0-0.7c0-0.2,0-0.4,0-0.7c-0.1-0.2-0.1-0.5-0.1-0.7c0-0.2,0-0.5-0.1-0.7
			c-0.1-0.4-0.2-0.9-0.3-1.3c-0.1-0.4-0.2-0.9-0.3-1.3c-0.2-0.7-0.5-1.3-0.6-2c-0.2-0.6-0.4-1.2-0.6-1.8c-0.8-2-2-3.9-3.4-5.5
			s-3.2-2.9-5.2-3.8c-1.1-0.5-2.4-0.9-3.9-1.2c-0.7-0.2-1.5-0.3-2.3-0.3c-0.9,0-1.7,0-2.6,0c-0.3,0-0.7,0.1-1,0.1
			c-0.3,0-0.7,0.1-1.1,0.1c-0.7,0.2-1.4,0.4-2.1,0.6c-0.7,0.2-1.3,0.4-2,0.6c-2.7,1.1-4.8,2.8-6.3,4.9c-1.5,2.1-2.8,4.6-3.7,7.5
			c-0.2,0.5-0.3,1.1-0.4,1.7c-0.1,0.6-0.2,1.1-0.3,1.7c0,0.2-0.1,0.5-0.1,0.7c0,0.2,0,0.5-0.1,0.7c-0.1,0.2-0.1,0.4-0.1,0.6
			c0,0.2,0,0.4,0,0.6v0.7c0,0.2-0.1,0.7-0.1,1.3c0,0.6,0,1.1,0.1,1.3c0,0.2,0,0.4,0,0.6c0,0.2,0,0.4,0,0.6c0.1,0.4,0.2,0.8,0.2,1.3
			c0,0.5,0.1,0.9,0.2,1.3c0,0.2,0.1,0.4,0,0.6c0,0.2,0,0.4,0.1,0.6c0.1,0.5,0.3,1.1,0.4,1.6c0.1,0.5,0.3,1.1,0.5,1.6
			s0.5,1.1,0.6,1.6c0.2,0.5,0.4,1,0.7,1.5c0.2,0.4,0.5,0.8,0.7,1.1c0.2,0.4,0.5,0.8,0.7,1.1c1.5,2.2,3.5,3.9,6,5.1
			c0.7,0.4,1.4,0.7,2.1,0.9c0.7,0.2,1.5,0.4,2.3,0.7c0.3,0.1,0.7,0.1,1,0.1c0.3,0,0.6,0,1,0.1c0.3,0.1,0.6,0.1,1,0.1
			c0.4,0,0.8,0,1.2,0h0.7c0.2,0,0.5-0.1,0.7-0.1c0.2,0,0.5,0,0.7,0c0.7-0.1,1.3-0.3,2-0.4c0.6-0.1,1.2-0.3,1.7-0.5
			c2.5-1,4.6-2.4,6.2-4.1c1.6-1.7,2.9-3.8,4-6.3c0.2-0.6,0.5-1.3,0.6-2c0.2-0.7,0.4-1.4,0.6-2.1c0.1-0.3,0.2-0.6,0.2-0.9
			c0-0.3,0.1-0.7,0.2-1l0.2-2.4V684.3z"/>
		<path class="st1" d="M1078.9,670.6c0.1,0.4,0.1,0.9,0.1,1.6s0,1.2-0.1,1.5s-0.1,0.7-0.1,1c0,0.3,0,0.6-0.1,1
			c-0.1,0.3-0.2,0.6-0.2,0.9c0,0.3-0.1,0.6-0.2,0.9c-0.1,0.4-0.2,0.8-0.3,1.1c-0.1,0.3-0.3,0.7-0.4,1c-0.1,0.1-0.2,0.3-0.2,0.4
			c0,0.1-0.1,0.2-0.2,0.3c-0.5,1-1.1,1.9-1.8,2.7c-0.1,0.2-0.3,0.4-0.5,0.6c-0.2,0.2-0.4,0.3-0.6,0.4c-0.2,0.1-0.4,0.2-0.5,0.4
			c-0.1,0.2-0.3,0.3-0.4,0.4l-1.6,0.9c-0.5,0.4-1.2,0.7-1.9,0.9c-0.7,0.2-1.5,0.4-2.2,0.6c-0.4,0.1-0.8,0.2-1.2,0.2
			c-0.4,0-0.8,0.1-1.2,0.2c-0.2,0-0.4,0.1-0.6,0c-0.2,0-0.3,0-0.5,0c-0.2,0-0.5,0-0.7,0c-0.2,0-0.5,0-0.7,0h-11.2
			c-0.7,0-1.5,0-2.4,0c-0.9,0-1.5,0.1-2,0.5c-0.5,0.4-0.8,1.1-0.8,2.2c0,1,0,2,0,2.9v10.9c0,0.6,0,1.4,0,2.4c0,1-0.1,1.6-0.3,2
			c-0.2,0.3-0.4,0.5-0.7,0.6c-0.3,0.1-0.6,0.2-1,0.3h-1.3c-0.7,0-1.4,0-2-0.1c-0.6,0-1-0.3-1.3-0.7c-0.2-0.3-0.3-0.7-0.3-1.2
			s0-1,0-1.5v-45c0-0.5,0-1.1,0-1.8s0.1-1.2,0.3-1.6c0.2-0.3,0.6-0.5,1.1-0.7c0.1,0,0.2-0.1,0.3,0c0.1,0,0.2,0,0.3,0h16.8
			c1.9,0,3.7,0,5.5,0c1.8,0,3.4,0.3,4.9,0.7c2.2,0.7,4,1.7,5.4,2.9c1.4,1.2,2.5,2.8,3.4,4.9c0.2,0.5,0.4,1.1,0.6,1.7
			c0.1,0.6,0.3,1.2,0.5,1.9c0.1,0.3,0.1,0.7,0.1,1C1078.8,669.9,1078.8,670.2,1078.9,670.6z M1071.9,673.2c0.2-0.7,0.2-1.5,0.1-2.4
			s-0.3-1.6-0.4-2.2c-0.5-1.4-1.1-2.5-2-3.3c-0.8-0.8-1.9-1.5-3.1-2c-1.1-0.4-2.3-0.7-3.7-0.8c-1.4-0.1-2.9-0.1-4.4-0.1h-9.6
			c-0.1,0-0.2,0.1-0.3,0.1c-0.1,0-0.3,0-0.4,0.1c-0.6,0.1-1,0.5-1.2,1c-0.2,0.5-0.3,1.1-0.3,2c0,0.8,0,1.6,0,2.3v8.9
			c0,0.7,0,1.6,0,2.4c0,0.9,0.1,1.6,0.4,2.1c0.2,0.4,0.6,0.6,1.1,0.7c0.5,0.1,1.1,0.1,1.7,0.1h10c0.7,0,1.5,0,2.3,0
			c0.8,0,1.5-0.1,2.1-0.3c1.3-0.3,2.5-0.8,3.5-1.2c1-0.5,1.9-1.2,2.6-2.2c0.4-0.6,0.7-1.2,0.9-1.9c0.2-0.6,0.4-1.4,0.6-2.1
			C1071.9,674,1071.9,673.7,1071.9,673.2z"/>
		<path class="st1" d="M1138.1,670.6c0.1,0.4,0.1,0.9,0.1,1.6s-0.1,1.2-0.1,1.5c-0.1,0.3-0.1,0.7-0.1,1c0,0.3,0,0.6-0.1,1
			c-0.1,0.3-0.2,0.6-0.2,0.9c-0.1,0.3-0.1,0.6-0.2,0.9c-0.1,0.4-0.2,0.8-0.3,1.1c-0.1,0.3-0.3,0.7-0.4,1c-0.1,0.1-0.2,0.3-0.2,0.4
			c0,0.1-0.1,0.2-0.2,0.3c-0.5,1-1.1,1.9-1.8,2.7c-0.1,0.2-0.3,0.4-0.5,0.6c-0.2,0.2-0.4,0.3-0.6,0.4c-0.2,0.1-0.4,0.2-0.5,0.4
			c-0.1,0.2-0.3,0.3-0.4,0.4l-1.6,0.9c-0.5,0.4-1.2,0.7-1.9,0.9c-0.7,0.2-1.5,0.4-2.2,0.6c-0.4,0.1-0.8,0.2-1.2,0.2
			c-0.4,0-0.8,0.1-1.2,0.2c-0.2,0-0.4,0.1-0.6,0c-0.2,0-0.3,0-0.5,0c-0.2,0-0.5,0-0.7,0c-0.2,0-0.5,0-0.7,0h-11.2
			c-0.7,0-1.5,0-2.4,0c-0.9,0-1.5,0.1-2,0.5c-0.5,0.4-0.8,1.1-0.8,2.2c0,1,0,2,0,2.9v10.9c0,0.6,0,1.4,0,2.4s-0.1,1.6-0.3,2
			c-0.2,0.3-0.4,0.5-0.7,0.6c-0.3,0.1-0.6,0.2-1,0.3h-1.3c-0.7,0-1.4,0-2-0.1c-0.6,0-1-0.3-1.3-0.7c-0.2-0.3-0.3-0.7-0.3-1.2
			s0-1,0-1.5v-45c0-0.5,0-1.1,0-1.8c0-0.7,0.1-1.2,0.3-1.6c0.2-0.3,0.6-0.5,1.1-0.7c0.1,0,0.2-0.1,0.3,0c0.1,0,0.2,0,0.3,0h16.8
			c1.9,0,3.7,0,5.5,0c1.8,0,3.4,0.3,4.9,0.7c2.2,0.7,4,1.7,5.4,2.9c1.4,1.2,2.5,2.8,3.4,4.9c0.2,0.5,0.4,1.1,0.6,1.7
			s0.3,1.2,0.5,1.9c0.1,0.3,0.1,0.7,0.1,1C1137.9,669.9,1138,670.2,1138.1,670.6z M1131.1,673.2c0.2-0.7,0.2-1.5,0.1-2.4
			s-0.3-1.6-0.4-2.2c-0.5-1.4-1.2-2.5-2-3.3c-0.8-0.8-1.9-1.5-3.2-2c-1.1-0.4-2.3-0.7-3.7-0.8c-1.4-0.1-2.9-0.1-4.4-0.1h-9.6
			c-0.1,0-0.2,0.1-0.3,0.1s-0.3,0-0.4,0.1c-0.6,0.1-1,0.5-1.2,1c-0.2,0.5-0.3,1.1-0.3,2s0,1.6,0,2.3v8.9c0,0.7,0,1.6,0,2.4
			c0,0.9,0.1,1.6,0.4,2.1c0.2,0.4,0.6,0.6,1.1,0.7c0.5,0.1,1.1,0.1,1.7,0.1h10c0.7,0,1.5,0,2.3,0c0.8,0,1.5-0.1,2.1-0.3
			c1.3-0.3,2.5-0.8,3.5-1.2c1-0.5,1.9-1.2,2.6-2.2c0.4-0.6,0.7-1.2,0.9-1.9c0.2-0.6,0.4-1.4,0.6-2.1
			C1131.1,674,1131.1,673.7,1131.1,673.2z"/>
		<path class="st1" d="M1160,656.6h24.2h6.4c0.5,0,1.1,0,1.6,0c0.5,0,1,0.1,1.3,0.3c0.1,0.1,0.3,0.2,0.4,0.4
			c0.1,0.1,0.2,0.3,0.3,0.4c0.1,0.3,0.1,0.9,0.1,1.7c0,0.8-0.1,1.3-0.1,1.7c-0.2,0.7-0.6,1.1-1.3,1.1c-0.6,0.1-1.4,0.1-2.3,0.1h-7.4
			h-12.5c-0.8,0-1.7,0-2.8,0c-1.1,0-1.8,0.1-2.3,0.4c-0.5,0.3-0.8,0.8-0.8,1.6s0,1.5,0,2.3v7.6c0,0.5,0,1.2,0,1.9s0,1.3,0.1,1.8
			c0.1,0.6,0.4,1,0.9,1.2c0.2,0.1,0.5,0.2,1,0.3h0.7c0.2,0,0.4,0.1,0.6,0c0.2,0,0.5,0,0.7,0h2.5h14.5c0.4,0,0.9,0,1.5,0
			c0.5,0,1.1,0,1.7,0c0.6,0,1.1,0.1,1.6,0.1c0.5,0.1,0.8,0.2,1.1,0.3c0.1,0.1,0.3,0.3,0.4,0.7c0.1,0.3,0.2,0.7,0.2,1.1
			c0,0.4,0.1,0.8,0,1.2c0,0.4-0.1,0.8-0.2,1.1c-0.1,0.4-0.3,0.8-0.7,1c-0.1,0.1-0.2,0.2-0.4,0.2c-0.2,0-0.3,0.1-0.5,0.1h-0.4
			c-0.2,0-0.5,0.1-0.7,0c-0.2,0-0.5,0-0.7,0h-2.7h-15.6c-0.6,0-1.2,0-1.7,0c-0.6,0-1.1,0-1.6,0.1c-0.5,0.1-0.9,0.2-1.3,0.4
			c-0.4,0.2-0.6,0.5-0.8,1c-0.1,0.3-0.1,0.6-0.1,1c0,0.4,0,0.8,0,1.2v4.2v7c0,0.7,0,1.3,0.1,1.9c0,0.6,0.2,1,0.6,1.2
			c0.3,0.2,0.7,0.4,1.2,0.4c0.4,0,0.9,0,1.5,0h4.7h13.7h4.2c0.4,0,0.8,0,1.2,0c0.4,0,0.7,0,1,0.1c0.6,0.2,1,0.5,1.2,0.8
			c0.1,0.1,0.2,0.4,0.2,0.7s0.1,0.7,0.1,1.1c0,0.4,0,0.7,0,1.1c0,0.4-0.1,0.7-0.1,0.9c-0.2,0.4-0.4,0.7-0.7,0.8
			c-0.3,0.2-0.7,0.3-1.1,0.3c-0.5,0-0.9,0-1.4,0h-5.2h-19.7h-5.2c-0.7,0-1.3,0-1.8-0.1s-0.9-0.3-1.1-0.7c-0.2-0.3-0.3-0.7-0.3-1.1
			s0-0.9,0-1.4v-5.2V681v-16.6v-4.6c0-0.4,0-0.9,0-1.3s0.1-0.8,0.3-1c0.2-0.3,0.6-0.6,1.1-0.7c0.1,0,0.2-0.1,0.3,0
			C1159.8,656.6,1159.9,656.6,1160,656.6z"/>
		<path class="st1" d="M1216.7,656.6h4.5c0.5,0,1,0,1.4,0s0.8,0.1,1.1,0.3c0.4,0.3,0.8,0.7,0.9,1.2c0.2,0.5,0.4,1,0.6,1.6
			c0.4,0.9,0.8,1.9,1.1,2.8c0.3,0.9,0.7,1.9,1.1,2.8c0.3,0.9,0.7,1.8,1,2.7c0.3,0.9,0.6,1.8,1,2.7c0.3,0.7,0.6,1.4,0.8,2.1
			c0.2,0.7,0.5,1.5,0.8,2.1c0.9,2.2,1.7,4.5,2.5,6.7c0.8,2.2,1.6,4.5,2.5,6.7c0.1,0.2,0.2,0.5,0.3,0.7c0.1,0.2,0.2,0.5,0.3,0.7
			c0.4,1.1,0.9,2.2,1.3,3.3c0.4,1.1,0.8,2.2,1.3,3.3c0.2,0.4,0.4,1,0.6,1.6c0.2,0.6,0.5,1,1,1.1c0.2,0,0.3,0,0.4,0
			c0.1-0.1,0.2-0.2,0.3-0.3c0.2-0.2,0.4-0.5,0.6-0.8c0.1-0.3,0.3-0.6,0.4-1c0.4-1,0.8-2.1,1.2-3.2c0.4-1.1,0.8-2.1,1.2-3.2
			c0.1-0.2,0.2-0.5,0.3-0.8c0.1-0.3,0.2-0.6,0.3-0.9c0.4-0.9,0.8-1.9,1.1-2.9c0.3-1,0.7-1.9,1.1-2.9c1.2-2.9,2.3-5.8,3.3-8.7
			c1-2.9,2.1-5.8,3.3-8.7c0.4-1,0.8-2,1.1-3s0.8-2,1.1-3c0.2-0.4,0.4-0.9,0.6-1.5c0.2-0.6,0.4-1,0.8-1.3c0.3-0.2,0.7-0.3,1.2-0.4
			c0.5-0.1,1-0.2,1.6-0.2c0.6,0,1.2,0,1.8,0c0.6,0,1.1,0,1.6,0c0.4,0,0.9,0,1.4,0c0.5,0,0.8,0.1,1.1,0.3c0.4,0.2,0.7,0.7,0.7,1.3
			c0,0.6,0.1,1.3,0.1,2.1v8.2v31v6.2c0,0.5,0,1.1,0,1.6c0,0.5-0.1,1-0.3,1.3c-0.1,0.3-0.4,0.5-0.7,0.6c-0.3,0.1-0.6,0.2-1,0.3h-1.2
			c-0.6,0-1.2,0-1.8,0c-0.5,0-0.9-0.2-1.2-0.6c-0.1-0.1-0.2-0.3-0.2-0.5c0-0.2-0.1-0.4-0.2-0.6v-0.8c-0.1-0.3-0.1-0.6,0-1
			c0-0.4,0-0.8,0-1.1v-4.2v-21.9c0-1.2,0-2.5,0-3.7s0-2.5-0.1-3.7c0-0.5,0-1-0.1-1.6c-0.1-0.6-0.3-0.9-0.8-0.9v0.1
			c-0.3,0.1-0.6,0.4-0.9,1c-0.2,0.5-0.4,1-0.6,1.4c-0.3,0.8-0.7,1.7-1,2.6c-0.3,0.9-0.6,1.7-1,2.6c-0.1,0.2-0.2,0.5-0.2,0.7
			c-0.1,0.2-0.1,0.4-0.2,0.7c-0.4,0.9-0.7,1.8-1,2.7c-0.3,0.9-0.6,1.8-1,2.7c-0.3,0.7-0.6,1.5-0.9,2.3c-0.2,0.8-0.5,1.5-0.8,2.3
			c-1,2.3-1.9,4.7-2.7,7c-0.8,2.3-1.7,4.7-2.6,6.9c-0.4,0.9-0.7,1.8-1,2.7c-0.3,0.9-0.6,1.8-1,2.7c-0.2,0.5-0.5,1-0.7,1.5
			c-0.2,0.5-0.7,0.8-1.3,1c-0.1,0-0.2,0.1-0.3,0c-0.1,0-0.3,0-0.4,0c-0.1,0-0.3,0.1-0.5,0c-0.2,0-0.4,0-0.6,0c-0.5,0-1,0-1.5,0
			c-0.5,0-0.9-0.1-1.2-0.4c-0.4-0.2-0.7-0.6-0.9-1.1c-0.2-0.5-0.4-1-0.6-1.4c-0.4-1-0.8-2-1.1-3.1c-0.4-1.1-0.8-2.1-1.1-3.1
			c-0.4-0.9-0.7-1.8-1-2.7c-0.3-0.9-0.6-1.8-1-2.7c-1.1-2.8-2.2-5.6-3.2-8.4c-1-2.8-2.1-5.6-3.2-8.4c-0.4-1-0.8-2.1-1.2-3.2
			c-0.4-1.1-0.8-2.1-1.1-3.1c-0.2-0.5-0.5-1.1-0.6-1.6c-0.2-0.5-0.4-1-0.8-1.4c-0.1-0.1-0.1-0.2-0.1-0.2c0,0-0.1-0.1-0.1-0.1h-0.4
			c0,0-0.1,0.1-0.1,0.1c-0.1,0-0.1,0.1-0.1,0.1c-0.1,0.2-0.1,0.5-0.1,0.8s-0.1,0.6-0.1,0.9v0.8c-0.1,0.3-0.1,0.6-0.1,1
			c0,0.3,0.1,0.7,0.1,1v4v22.5v5.9c0,0.5,0,1.1,0,1.6c0,0.5-0.2,1-0.4,1.3c-0.2,0.4-0.7,0.6-1.3,0.6c-0.6,0-1.3,0-2,0
			c-0.3,0-0.7,0-0.9,0s-0.5,0-0.8-0.1c-0.6-0.2-1-0.6-1.1-1.3c-0.1-0.6-0.1-1.4-0.1-2.2v-8.6v-29.6v-7c0-0.5,0-1.1,0-1.7
			c0-0.6,0.1-1.1,0.3-1.4c0.2-0.3,0.6-0.5,1.1-0.7c0.1,0,0.2-0.1,0.3,0C1216.5,656.6,1216.6,656.6,1216.7,656.6z"/>
		<path class="st1" d="M1292.1,656.6h24.2h6.4c0.5,0,1.1,0,1.6,0c0.5,0,1,0.1,1.3,0.3c0.1,0.1,0.3,0.2,0.4,0.4
			c0.1,0.1,0.2,0.3,0.3,0.4c0.1,0.3,0.1,0.9,0.1,1.7c0,0.8-0.1,1.3-0.1,1.7c-0.2,0.7-0.6,1.1-1.3,1.1c-0.6,0.1-1.4,0.1-2.3,0.1h-7.4
			h-12.5c-0.8,0-1.7,0-2.8,0c-1.1,0-1.8,0.1-2.3,0.4c-0.5,0.3-0.8,0.8-0.8,1.6s0,1.5,0,2.3v7.6c0,0.5,0,1.2,0,1.9s0,1.3,0.1,1.8
			c0.1,0.6,0.4,1,0.9,1.2c0.2,0.1,0.5,0.2,1,0.3h0.7c0.2,0,0.4,0.1,0.6,0c0.2,0,0.5,0,0.7,0h2.5h14.5c0.4,0,0.9,0,1.5,0
			c0.5,0,1.1,0,1.7,0c0.6,0,1.1,0.1,1.6,0.1c0.5,0.1,0.8,0.2,1.1,0.3c0.1,0.1,0.3,0.3,0.4,0.7c0.1,0.3,0.2,0.7,0.2,1.1
			c0,0.4,0.1,0.8,0,1.2c0,0.4-0.1,0.8-0.2,1.1c-0.1,0.4-0.3,0.8-0.7,1c-0.1,0.1-0.2,0.2-0.4,0.2c-0.2,0-0.3,0.1-0.5,0.1h-0.4
			c-0.2,0-0.5,0.1-0.7,0c-0.2,0-0.5,0-0.7,0h-2.7h-15.6c-0.6,0-1.2,0-1.7,0c-0.6,0-1.1,0-1.6,0.1c-0.5,0.1-0.9,0.2-1.3,0.4
			c-0.4,0.2-0.6,0.5-0.8,1c-0.1,0.3-0.1,0.6-0.1,1c0,0.4,0,0.8,0,1.2v4.2v7c0,0.7,0,1.3,0.1,1.9c0,0.6,0.2,1,0.6,1.2
			c0.3,0.2,0.7,0.4,1.2,0.4c0.4,0,0.9,0,1.5,0h4.7h13.7h4.2c0.4,0,0.8,0,1.2,0c0.4,0,0.7,0,1,0.1c0.6,0.2,1,0.5,1.2,0.8
			c0.1,0.1,0.2,0.4,0.2,0.7s0.1,0.7,0.1,1.1c0,0.4,0,0.7,0,1.1c0,0.4-0.1,0.7-0.1,0.9c-0.2,0.4-0.4,0.7-0.7,0.8
			c-0.3,0.2-0.7,0.3-1.1,0.3c-0.5,0-0.9,0-1.4,0h-5.2h-19.7h-5.2c-0.7,0-1.3,0-1.8-0.1s-0.9-0.3-1.1-0.7c-0.2-0.3-0.3-0.7-0.3-1.1
			s0-0.9,0-1.4v-5.2V681v-16.6v-4.6c0-0.4,0-0.9,0-1.3s0.1-0.8,0.3-1c0.2-0.3,0.6-0.6,1.1-0.7c0.1,0,0.2-0.1,0.3,0
			C1291.9,656.6,1292,656.6,1292.1,656.6z"/>
		<path class="st1" d="M1348.6,656.6c0.9,0,1.9,0,3,0c1.1,0,1.9,0.2,2.4,0.6c0.4,0.3,0.8,0.7,1.1,1.3c0.3,0.6,0.7,1.1,1,1.5
			c0.6,1,1.3,2,2,3c0.7,1,1.3,2,2,3.1c0.3,0.5,0.7,1.1,1.1,1.6c0.4,0.5,0.7,1.1,1.1,1.6c1.5,2.4,3,4.7,4.5,7.1
			c1.5,2.3,3.1,4.7,4.6,7.1c0.4,0.7,0.8,1.3,1.3,2c0.5,0.6,0.9,1.3,1.3,2c0.8,1.3,1.7,2.7,2.6,4c0.9,1.3,1.7,2.6,2.6,3.9
			c0.2,0.4,0.6,0.9,0.9,1.4c0.4,0.6,0.8,0.9,1.4,0.9c0.2-0.1,0.4-0.2,0.4-0.2c0.2-0.3,0.4-0.7,0.4-1.3c0-0.5,0-1.1,0-1.6v-5.9v-22.7
			v-4.4c0-0.3,0-0.7-0.1-1.1c-0.1-0.4,0-0.8,0.1-1.1v-0.8c0.1-0.2,0.2-0.4,0.2-0.6c0-0.2,0.1-0.4,0.2-0.5c0.3-0.4,0.7-0.6,1.3-0.6
			c0.6,0,1.2,0,1.9,0c0.3,0,0.6,0,0.9,0c0.3,0,0.6,0,0.9,0.1c0.6,0.2,0.9,0.7,1,1.3c0.1,0.6,0.1,1.3,0.1,2.2v8.2v31.1v6.2
			c0,0.5,0,1.1,0,1.6c0,0.5-0.1,1-0.3,1.3c-0.2,0.3-0.4,0.5-0.7,0.6c-0.3,0.1-0.6,0.2-1,0.3h-1.9c-0.6,0-1.2,0-1.8,0
			s-1.1-0.1-1.5-0.3c-0.4-0.1-0.7-0.4-0.9-0.7c-0.2-0.3-0.5-0.7-0.7-1c-0.4-0.6-0.8-1.2-1.2-1.9c-0.4-0.6-0.8-1.3-1.2-1.9
			c-1.8-2.7-3.5-5.3-5.3-7.9c-1.7-2.6-3.5-5.3-5.2-8c-0.9-1.5-1.9-2.9-2.9-4.4c-1-1.4-1.9-2.9-2.9-4.4c-1.6-2.6-3.3-5.2-5.1-7.8
			c-0.2-0.3-0.4-0.7-0.6-1c-0.2-0.3-0.5-0.6-0.8-0.9c-0.1,0-0.2-0.1-0.3-0.2c-0.1-0.1-0.2-0.1-0.4-0.1c-0.3,0.1-0.5,0.3-0.5,0.6
			c-0.1,0.3-0.1,0.6-0.2,0.9v0.5c-0.1,0.3-0.1,0.7-0.1,1.1c0,0.4,0.1,0.8,0.1,1.2v4.9v23.6v3.5c0,0.2,0,0.5,0,0.9
			c0,0.3,0,0.6-0.1,0.9v0.6c-0.1,0.5-0.2,0.8-0.3,1c-0.1,0.2-0.3,0.4-0.5,0.5c-0.2,0.1-0.5,0.2-0.8,0.3h-1.5c-0.7,0-1.3,0-1.9-0.1
			c-0.5,0-0.9-0.3-1.2-0.7c-0.2-0.3-0.4-0.7-0.4-1.2c0-0.5,0-1,0-1.6v-6v-31v-8c0-0.6,0-1.2,0-1.9c0-0.7,0.1-1.2,0.4-1.6
			c0.1-0.2,0.4-0.5,0.9-0.7c0.1,0,0.2-0.1,0.4,0C1348.3,656.6,1348.5,656.6,1348.6,656.6z"/>
		<path class="st1" d="M1407.6,656.5h31h5.6c0.5,0,1,0,1.5,0s0.9,0.1,1.3,0.3c0.4,0.2,0.6,0.6,0.7,1c0.1,0.4,0.1,1,0.1,1.6v0.9
			c-0.1,0.4-0.2,0.7-0.3,1c-0.1,0.2-0.2,0.5-0.5,0.7c-0.4,0.2-0.9,0.4-1.6,0.4s-1.4,0-2,0h-8.5c-0.5,0-1.1,0-1.6,0
			c-0.5,0-1,0-1.4,0.1s-0.8,0.2-1.1,0.4c-0.3,0.2-0.5,0.6-0.7,1s-0.2,1-0.1,1.7c0,0.7,0.1,1.3,0.1,1.9v7.2v23.4v7.9
			c0,0.7,0,1.4-0.1,2s-0.4,1-0.9,1.3c-0.2,0.1-0.5,0.2-0.9,0.2c-0.3,0-0.7,0-1.1,0c-0.6,0-1.3,0-2,0c-0.7,0-1.2-0.2-1.4-0.5
			c-0.3-0.4-0.5-0.9-0.5-1.4c0-0.5,0-1.1,0-1.8V699v-24.4v-7.3c0-0.5,0-1.2,0-1.9c0-0.7,0-1.3-0.2-1.7c-0.2-0.8-0.8-1.2-1.7-1.3
			c-0.9,0-1.8-0.1-2.8-0.1h-8.2c-0.6,0-1.3,0-2,0c-0.8,0-1.3,0-1.7-0.2c-0.1-0.1-0.3-0.2-0.4-0.3c-0.1-0.1-0.3-0.2-0.4-0.4
			c-0.1-0.2-0.2-0.5-0.3-1c0-0.4-0.1-0.9,0-1.3s0.1-0.9,0.2-1.3c0.1-0.4,0.2-0.7,0.4-0.8c0.1-0.1,0.2-0.3,0.4-0.3
			c0.2-0.1,0.4-0.1,0.6-0.2c0.1,0,0.2-0.1,0.3,0C1407.4,656.6,1407.5,656.5,1407.6,656.5z"/>
		<path class="st1" d="M1494,656.6c0.8,0,1.7,0,2.5,0c0.8,0,1.5,0.2,2,0.6c0.4,0.2,0.6,0.6,0.7,1.2c0.1,0.5,0.2,1.1,0.3,1.6
			c0.2,0.7,0.4,1.4,0.5,2c0.1,0.7,0.3,1.3,0.5,2c0.1,0.2,0.1,0.5,0.1,0.7s0,0.5,0.1,0.7c0.2,0.8,0.4,1.7,0.6,2.4
			c0.1,0.8,0.3,1.6,0.6,2.4c0.2,0.7,0.4,1.4,0.5,2.1c0.1,0.7,0.3,1.4,0.5,2.1c0.6,2.1,1.1,4.3,1.6,6.4c0.4,2.2,1,4.3,1.6,6.5
			l0.2,1.3c0.3,1.1,0.6,2.3,0.9,3.5s0.5,2.4,0.9,3.5c0.1,0.4,0.2,0.9,0.4,1.4c0.1,0.6,0.5,0.9,1,0.9c0.1-0.1,0.2-0.2,0.3-0.2
			c0.1,0,0.1-0.1,0.2-0.2c0.3-0.4,0.5-0.9,0.6-1.4c0.1-0.6,0.3-1.1,0.4-1.7c0.2-0.7,0.5-1.5,0.7-2.3c0.2-0.8,0.4-1.5,0.7-2.3
			c0.1-0.2,0.1-0.5,0.1-0.7c0-0.2,0-0.5,0.1-0.7c0.2-0.7,0.4-1.4,0.6-2.2s0.3-1.5,0.6-2.1c0.1-0.2,0.1-0.5,0.1-0.6
			c0-0.2,0-0.4,0.1-0.6c0.2-0.6,0.4-1.2,0.5-1.8c0.1-0.6,0.3-1.2,0.6-1.9c0.1-0.4,0.2-0.9,0.3-1.3c0.1-0.4,0.3-0.9,0.4-1.4
			c0.5-1.7,1-3.5,1.4-5.3s0.9-3.6,1.4-5.3c0.1-0.2,0.1-0.5,0.1-0.7s0-0.4,0.1-0.7c0.3-0.8,0.5-1.7,0.7-2.6c0.2-0.9,0.4-1.7,0.7-2.6
			c0.1-0.5,0.3-1,0.4-1.5c0.1-0.5,0.3-0.8,0.7-1.1c0.4-0.3,1-0.4,1.7-0.4c0.8,0,1.5,0,2.2,0c0.4,0,0.8,0,1.2,0c0.4,0,0.7,0,1,0.1
			c0.7,0.2,1.1,0.5,1.3,1c0.1,0.5,0.3,1.1,0.6,1.7c0.2,0.6,0.4,1.3,0.6,2s0.3,1.3,0.6,2c0,0.1,0.1,0.3,0.1,0.4s0,0.3,0.1,0.5
			c0.2,0.7,0.5,1.4,0.6,2.2c0.2,0.8,0.4,1.5,0.6,2.2c0,0.2,0.1,0.4,0.1,0.6c0,0.1,0,0.3,0.1,0.5c0.2,0.6,0.4,1.2,0.5,1.8
			c0.1,0.6,0.3,1.2,0.5,1.8c0.1,0.1,0.1,0.3,0.1,0.4s0,0.3,0.1,0.5c0.2,0.5,0.3,1.1,0.4,1.6c0.1,0.5,0.2,1.1,0.4,1.6
			c0.1,0.4,0.2,0.8,0.3,1.1c0.1,0.4,0.2,0.8,0.3,1.1c0.4,1.4,0.8,2.8,1.1,4.2c0.3,1.4,0.7,2.9,1.2,4.3c0.1,0.2,0.2,0.5,0.2,0.8
			c0,0.3,0.1,0.6,0.2,0.8c0.3,0.9,0.6,1.9,0.9,2.9c0.2,1,0.5,2,0.8,2.9c0.1,0.3,0.2,0.8,0.4,1.3c0.1,0.5,0.4,0.8,0.8,0.9
			c0.1,0,0.3,0,0.4-0.1c0.1-0.1,0.2-0.2,0.2-0.3c0.2-0.2,0.3-0.5,0.4-0.8c0.1-0.3,0.2-0.6,0.3-1c0.3-0.9,0.6-1.9,0.8-2.9
			c0.2-1,0.5-2,0.7-3c0.1-0.3,0.2-0.7,0.2-1c0-0.3,0.1-0.7,0.2-1.1c0.3-0.8,0.5-1.7,0.7-2.6c0.2-0.9,0.4-1.8,0.6-2.8
			c0.7-2.4,1.3-4.8,1.8-7.3c0.5-2.5,1.1-4.9,1.8-7.3c0.2-0.7,0.4-1.5,0.5-2.3c0.1-0.8,0.3-1.5,0.6-2.3c0.2-0.7,0.4-1.5,0.5-2.2
			c0.1-0.7,0.3-1.5,0.6-2.1c0.1-0.4,0.2-0.8,0.3-1.2s0.3-0.7,0.6-0.9c0.3-0.2,0.8-0.4,1.3-0.4c0.5,0,1-0.1,1.6-0.1h1.6
			c0.1,0,0.3,0,0.4,0c0.1,0,0.3,0,0.4,0c0.3,0.1,0.6,0.3,0.8,0.6c0.2,0.3,0.3,0.7,0.2,1.2c-0.2,0.7-0.4,1.4-0.6,2.1
			c-0.2,0.7-0.4,1.4-0.6,2.1c-0.1,0.4-0.3,0.9-0.4,1.3c-0.1,0.4-0.2,0.9-0.4,1.3c-0.2,0.6-0.4,1.3-0.5,1.9c-0.1,0.6-0.2,1.3-0.4,1.9
			c-0.3,0.8-0.6,1.7-0.8,2.7c-0.2,0.9-0.5,1.8-0.7,2.7c-0.1,0.2-0.2,0.5-0.2,0.7c0,0.2-0.1,0.5-0.2,0.7c-0.2,0.7-0.4,1.4-0.6,2.1
			c-0.1,0.7-0.3,1.4-0.6,2.1c-0.1,0.2-0.1,0.5-0.1,0.7c0,0.2-0.1,0.4-0.1,0.7c-0.2,0.6-0.4,1.2-0.5,1.8c-0.1,0.6-0.3,1.2-0.5,1.7
			c-0.1,0.2-0.1,0.4-0.1,0.5s0,0.3-0.1,0.4c-0.2,0.6-0.4,1.2-0.5,1.8c-0.1,0.6-0.3,1.2-0.5,1.8c-0.1,0.4-0.3,0.8-0.4,1.3
			c-0.1,0.5-0.2,0.9-0.4,1.4c-0.4,1.3-0.8,2.7-1.1,4.1c-0.3,1.4-0.7,2.8-1.1,4.1c-0.1,0.2-0.1,0.5-0.1,0.7c0,0.2,0,0.4-0.1,0.7
			c-0.2,0.7-0.5,1.4-0.6,2.2c-0.2,0.8-0.4,1.5-0.6,2.2c-0.1,0.5-0.3,1.1-0.4,1.6s-0.4,0.9-0.8,1.1c-0.3,0.2-0.8,0.4-1.4,0.4
			c-0.6,0-1.2,0-1.8,0h-1.8c-0.3-0.1-0.6-0.2-0.9-0.2c-0.2,0-0.5-0.1-0.7-0.3c-0.3-0.2-0.5-0.6-0.6-1c-0.1-0.4-0.2-0.8-0.3-1.2
			c-0.2-0.7-0.4-1.4-0.6-2.1c-0.1-0.7-0.3-1.4-0.6-2.1c-0.1-0.2-0.1-0.4-0.1-0.6c0-0.2,0-0.4-0.1-0.6c-0.2-0.8-0.5-1.7-0.7-2.6
			c-0.2-0.9-0.4-1.8-0.7-2.7c-0.2-0.7-0.5-1.5-0.6-2.3c-0.2-0.8-0.4-1.6-0.6-2.3c-0.2-0.5-0.3-1.1-0.4-1.6c-0.1-0.5-0.2-1.1-0.4-1.6
			c-0.6-1.9-1.1-3.8-1.6-5.7c-0.4-1.9-1-3.8-1.6-5.6c-0.1-0.2-0.2-0.5-0.2-0.8c0-0.3-0.1-0.6-0.2-0.9c-0.3-1-0.6-2-0.9-3
			c-0.2-1-0.5-2-0.9-3c-0.1-0.4-0.2-0.9-0.4-1.4c-0.2-0.5-0.5-0.8-1.1-0.8c0,0.1-0.1,0.1-0.1,0.1s-0.1,0-0.2,0.1
			c-0.3,0.4-0.5,0.9-0.6,1.5c-0.1,0.6-0.3,1.2-0.5,1.7c-0.2,0.8-0.5,1.7-0.7,2.5c-0.2,0.8-0.5,1.7-0.7,2.5c-0.1,0.2-0.1,0.4-0.1,0.5
			s0,0.3-0.1,0.5c-0.2,0.7-0.4,1.4-0.6,2.1c-0.1,0.7-0.3,1.4-0.6,2.2c-0.2,0.5-0.3,1-0.4,1.4c-0.1,0.5-0.2,1-0.4,1.5
			c-0.5,1.7-1,3.4-1.4,5.2c-0.4,1.8-0.9,3.5-1.4,5.2c-0.1,0.2-0.1,0.4-0.1,0.6c0,0.2-0.1,0.4-0.1,0.6c-0.2,0.7-0.4,1.4-0.6,2.1
			s-0.3,1.5-0.6,2.2c-0.1,0.2-0.2,0.5-0.2,0.6c0,0.2-0.1,0.4-0.2,0.6c-0.2,0.8-0.5,1.7-0.7,2.5c-0.2,0.8-0.5,1.7-0.7,2.5
			c-0.2,0.5-0.4,1.1-0.5,1.7c-0.1,0.6-0.4,1-0.9,1.2c-0.4,0.2-0.9,0.4-1.6,0.4c-0.7,0-1.3,0-2,0c-0.3,0-0.7,0-1,0
			c-0.3,0-0.7,0-1-0.1c-0.8-0.2-1.3-0.6-1.5-1.2c-0.1-0.6-0.3-1.3-0.6-2.1c-0.3-1-0.6-2.1-0.9-3.2s-0.5-2.1-0.9-3.2
			c-0.1-0.2-0.2-0.5-0.2-0.8c0-0.3-0.1-0.5-0.2-0.8c-0.4-1.1-0.7-2.3-0.9-3.5c-0.2-1.2-0.5-2.4-0.9-3.5c0-0.2-0.1-0.5-0.1-0.7
			c0-0.2-0.1-0.4-0.2-0.7c-0.2-0.7-0.4-1.5-0.6-2.3c-0.1-0.8-0.3-1.6-0.6-2.3c-0.1-0.2-0.1-0.4-0.1-0.6c0-0.2,0-0.4-0.1-0.6
			c-0.1-0.5-0.3-1.1-0.4-1.7c-0.1-0.6-0.3-1.1-0.5-1.7c0-0.2-0.1-0.4-0.1-0.5s-0.1-0.3-0.1-0.5c-0.1-0.5-0.3-1-0.4-1.5
			c-0.1-0.5-0.2-1-0.4-1.6c-0.1-0.4-0.3-0.8-0.3-1.3c-0.1-0.4-0.2-0.9-0.3-1.3c-0.4-1.1-0.7-2.2-0.9-3.3s-0.5-2.2-0.9-3.3
			c-0.1-0.3-0.2-0.6-0.2-0.9c0-0.3-0.1-0.6-0.2-1c-0.2-0.8-0.5-1.7-0.7-2.7c-0.2-0.9-0.5-1.9-0.7-2.7c-0.1-0.3-0.2-0.7-0.3-1.3
			c-0.1-0.6-0.1-1,0.2-1.4c0.1-0.3,0.5-0.5,1-0.6c0.1,0,0.2-0.1,0.3,0C1493.8,656.7,1493.9,656.7,1494,656.6z"/>
		<path class="st1" d="M1578.3,656.6h24.2h6.4c0.5,0,1.1,0,1.6,0c0.5,0,1,0.1,1.3,0.3c0.1,0.1,0.3,0.2,0.4,0.4
			c0.1,0.1,0.2,0.3,0.3,0.4c0.1,0.3,0.1,0.9,0.1,1.7c0,0.8,0,1.3-0.1,1.7c-0.2,0.7-0.6,1.1-1.3,1.1s-1.4,0.1-2.3,0.1h-7.4h-12.5
			c-0.8,0-1.7,0-2.8,0c-1.1,0-1.8,0.1-2.3,0.4c-0.5,0.3-0.8,0.8-0.8,1.6c0,0.7,0,1.5,0,2.3v7.6c0,0.5,0,1.2,0,1.9
			c0,0.7,0,1.3,0.1,1.8c0.1,0.6,0.4,1,0.9,1.2c0.2,0.1,0.5,0.2,1,0.3h0.7c0.2,0,0.4,0.1,0.6,0c0.2,0,0.5,0,0.7,0h2.5h14.5
			c0.4,0,0.9,0,1.5,0c0.5,0,1.1,0,1.7,0c0.6,0,1.1,0.1,1.6,0.1c0.5,0.1,0.8,0.2,1.1,0.3c0.1,0.1,0.3,0.3,0.4,0.7
			c0.1,0.3,0.2,0.7,0.2,1.1c0,0.4,0.1,0.8,0,1.2s-0.1,0.8-0.2,1.1c-0.1,0.4-0.3,0.8-0.7,1c-0.1,0.1-0.2,0.2-0.4,0.2
			c-0.2,0-0.3,0.1-0.5,0.1h-0.4c-0.2,0-0.5,0.1-0.7,0c-0.2,0-0.5,0-0.7,0h-2.7h-15.6c-0.6,0-1.2,0-1.7,0c-0.6,0-1.1,0-1.6,0.1
			c-0.5,0.1-0.9,0.2-1.3,0.4c-0.4,0.2-0.6,0.5-0.8,1c-0.1,0.3-0.1,0.6-0.1,1c0,0.4,0,0.8,0,1.2v4.2v7c0,0.7,0,1.3,0.1,1.9
			c0,0.6,0.2,1,0.6,1.2c0.3,0.2,0.7,0.4,1.2,0.4c0.4,0,0.9,0,1.5,0h4.7h13.7h4.2c0.4,0,0.8,0,1.2,0c0.4,0,0.7,0,1,0.1
			c0.6,0.2,1,0.5,1.2,0.8c0.1,0.1,0.2,0.4,0.2,0.7c0,0.3,0.1,0.7,0.1,1.1c0,0.4,0,0.7,0,1.1c-0.1,0.4-0.1,0.7-0.1,0.9
			c-0.2,0.4-0.4,0.7-0.7,0.8c-0.3,0.2-0.7,0.3-1.1,0.3s-0.9,0-1.4,0h-5.2h-19.7h-5.2c-0.7,0-1.3,0-1.8-0.1s-0.9-0.3-1.1-0.7
			c-0.2-0.3-0.3-0.7-0.3-1.1s0-0.9,0-1.4v-5.2V681v-16.6v-4.6c0-0.4,0-0.9,0-1.3s0.1-0.8,0.3-1c0.2-0.3,0.6-0.6,1.1-0.7
			c0.1,0,0.2-0.1,0.3,0C1578.1,656.6,1578.2,656.6,1578.3,656.6z"/>
		<path class="st1" d="M1673.7,690.2c0.3,0.9,0.5,2.1,0.5,3.5s-0.1,2.6-0.4,3.6c-0.1,0.4-0.2,0.9-0.3,1.3c-0.1,0.4-0.2,0.8-0.4,1.2
			c-1.2,3-3.1,5.3-5.6,7c-0.7,0.4-1.4,0.8-2.1,1.1c-0.7,0.3-1.5,0.6-2.3,0.9c-0.3,0.1-0.6,0.2-0.9,0.2c-0.3,0-0.6,0.1-0.9,0.2
			c-0.3,0.1-0.6,0.1-0.9,0.1c-0.3,0-0.6,0-0.9,0c-0.2,0.1-0.5,0.1-0.9,0.1c-0.3,0-0.6,0-0.9,0h-21.9c-0.6,0-1.1,0-1.7-0.1
			c-0.5,0-0.9-0.2-1.1-0.6c-0.2-0.3-0.3-0.7-0.3-1.1c0-0.4,0-0.9,0-1.4v-46.3c0-0.4,0-0.9,0-1.3s0.1-0.8,0.3-1.1
			c0.2-0.3,0.6-0.5,1.1-0.7c0.1,0,0.2-0.1,0.3,0c0.1,0,0.2,0,0.3,0h17.8h2.8c0.3,0,0.7,0,1,0c0.3,0,0.7,0,1,0.1h0.7
			c0.2,0.1,0.5,0.1,0.8,0.1c0.3,0,0.6,0,0.8,0.1h0.7c0.2,0.1,0.5,0.1,0.8,0.1s0.6,0,0.8,0.1c0.4,0.1,0.8,0.2,1.2,0.3
			c0.4,0.1,0.8,0.2,1.1,0.3c2.4,1,4.2,2.4,5.5,4.3c0.8,1.1,1.4,2.2,1.8,3.5c0.1,0.3,0.2,0.7,0.2,1c0,0.3,0.1,0.7,0.2,1.1
			c0.1,0.3,0.1,0.6,0.1,0.9s0,0.7,0,1.1v0.6c-0.1,0.4-0.2,0.9-0.2,1.3c0,0.4-0.1,0.9-0.2,1.3c-0.6,2.4-1.6,4.2-3,5.6
			c-0.3,0.4-0.7,0.7-1.1,1c-0.4,0.3-0.8,0.6-1.1,1c-0.1,0.1-0.2,0.2-0.4,0.4s-0.2,0.3-0.1,0.5c0.1,0.5,0.4,0.9,1,1.1
			c0.6,0.2,1.1,0.5,1.5,0.7c1.5,0.9,2.7,2.1,3.6,3.3c0.4,0.5,0.7,1.1,1,1.8C1673.2,688.9,1673.4,689.5,1673.7,690.2z M1639.7,663.5
			c-0.2,0.4-0.3,1-0.3,1.7c0,0.7,0,1.3,0,1.9v7.6c0,0.7,0,1.4,0,2.2c0,0.8,0.1,1.3,0.4,1.7c0.1,0.2,0.4,0.4,0.6,0.5
			c0.3,0.1,0.6,0.2,0.9,0.3h0.7c0.2,0,0.5,0.1,0.8,0c0.3,0,0.6,0,0.8,0h6.8c0.3,0,0.7,0,1,0c0.3,0,0.6,0,0.9,0h2.1
			c0.2-0.1,0.4-0.1,0.6-0.1c0.2,0,0.4,0,0.7,0c0.5-0.1,1.1-0.2,1.6-0.3c0.5,0,1-0.1,1.5-0.3c1.1-0.3,2-0.8,2.9-1.3
			c0.8-0.5,1.5-1.2,2-2.1c0.5-0.8,0.8-2,1-3.3c0-0.4,0.1-0.8,0.1-1.3c0-0.5,0-0.9-0.1-1.3c0-0.1-0.1-0.3,0-0.4s0-0.3,0-0.4
			c-0.2-0.5-0.4-1.1-0.6-1.6c-0.2-0.5-0.4-0.9-0.7-1.3c-0.5-0.7-1.2-1.3-2.1-1.7c-0.9-0.4-1.8-0.7-2.9-0.9c-1.1-0.2-2.3-0.3-3.5-0.4
			c-1.3,0-2.6-0.1-3.9-0.1h-9.3c-0.1,0.1-0.2,0.1-0.4,0.1c-0.2,0-0.3,0-0.4,0C1640.3,662.6,1639.9,663,1639.7,663.5z M1667.1,694.3
			c0-0.2,0.1-0.5,0-0.8c0-0.3-0.1-0.5-0.1-0.7c-0.1-0.2-0.1-0.5-0.1-0.6c0-0.2,0-0.4-0.1-0.6c-0.3-1-0.7-1.8-1.2-2.5
			c-0.6-0.8-1.3-1.5-2.1-2c-0.8-0.5-1.8-0.9-2.9-1.3c-0.4-0.1-0.8-0.2-1.3-0.2c-0.5,0-1-0.1-1.4-0.2c-0.3-0.1-0.6-0.1-0.9,0
			c-0.3,0.1-0.6,0.1-0.9,0c-0.2,0-0.5-0.1-0.8-0.1c-0.3,0-0.5,0-0.8,0h-13c-0.1,0.1-0.2,0.1-0.4,0.1c-0.2,0-0.3,0-0.4,0
			c-0.6,0.1-1,0.5-1.2,1c-0.2,0.4-0.3,1.1-0.3,1.9c0,0.8,0,1.5,0,2.2v8.4c0,0.7,0,1.5,0,2.4c0,0.8,0.1,1.5,0.4,1.9
			c0.2,0.3,0.6,0.6,1.1,0.6s1,0.1,1.6,0.1h12.5c1,0,1.9,0,2.8,0s1.7-0.1,2.4-0.4c1.3-0.4,2.4-0.9,3.3-1.5c0.9-0.6,1.6-1.4,2.2-2.4
			c0.3-0.5,0.5-1,0.7-1.6s0.3-1.2,0.5-1.9c0.1-0.2,0.1-0.5,0.1-0.7C1667.1,694.8,1667.1,694.5,1667.1,694.3z"/>
	</g>
	<g>
		<g>
			<path class="st1" d="M255.9,725.2c-0.7,0-1.2-0.1-1.4-0.3c-0.7-0.4-1.1-1.3-1.2-2.7c-0.1-1.4,0-2.4,0.4-3.2
				c0.4-1.1,1.3-1.9,2.5-2.5c1.2-0.6,2.3-1.1,3.3-1.6c4.7-2,9.3-4.1,13.8-6.2c4.5-2.1,9.1-4.2,13.8-6.2l7.5-3.6
				c1.4-0.6,2.8-1.3,4.1-1.9c1.4-0.7,2.8-1.3,4.3-1.9c0.6-0.3,1.3-0.6,2-0.9c0.7-0.4,1.1-0.8,1.3-1.4c0.2-0.8-0.1-1.4-0.7-1.8
				c-0.7-0.4-1.2-0.7-1.6-0.9c-1.5-0.8-3-1.5-4.7-2.2c-1.6-0.7-3.2-1.4-4.8-2.1c-2.9-1.2-5.8-2.5-8.6-4c-2.9-1.4-5.7-2.7-8.5-3.9
				c-1.7-0.7-3.3-1.4-4.9-2.2c-1.6-0.7-3.2-1.5-4.7-2.2c-1.2-0.5-2.5-1.1-3.7-1.6c-1.2-0.5-2.5-1.1-3.7-1.7c-1.1-0.5-2.2-1-3.6-1.5
				c-1.3-0.5-2.3-1.2-2.9-2.2c-0.2-0.3-0.3-0.6-0.3-0.9c0-0.4-0.1-0.7-0.2-1.1v-1.1c-0.2-0.4-0.2-0.9-0.1-1.5c0.1-0.6,0.3-1,0.5-1.4
				c0.4-0.7,1.1-1,2-0.8c0.9,0.2,1.6,0.4,2.2,0.7c1.9,0.9,3.8,1.7,5.7,2.6c1.8,0.8,3.7,1.6,5.7,2.4c6.1,2.7,12.1,5.5,18.2,8.3
				c6.1,2.8,12.1,5.6,18.2,8.3c1.5,0.7,3,1.4,4.5,2c1.5,0.7,3,1.3,4.5,1.9c1,0.4,1.9,0.9,2.7,1.3c0.8,0.4,1.5,1,2,1.9
				c0.4,0.6,0.7,1.7,0.7,3.2c0,1.5-0.2,2.7-0.7,3.4c-0.4,0.7-1,1.3-1.8,1.6c-0.7,0.4-1.6,0.8-2.4,1.1c-1.3,0.6-2.6,1.2-4,1.8
				c-1.3,0.6-2.7,1.2-4.1,1.8c-4.9,2.2-9.8,4.4-14.6,6.6c-4.8,2.2-9.7,4.5-14.7,6.6c-1,0.4-2,0.9-3,1.4c-1,0.5-2,0.9-3,1.4
				c-1.9,0.9-3.8,1.7-5.7,2.6c-1.8,0.8-3.7,1.7-5.7,2.6c-0.5,0.2-1.1,0.4-1.6,0.7s-1.1,0.5-1.6,0.7c-0.2,0.1-0.4,0.2-0.7,0.2
				C256.4,725,256.1,725.1,255.9,725.2z"/>
		</g>
		<g>
			<path class="st1" d="M252.2,686.9c0.7,0,1.2,0.1,1.4,0.3c0.7,0.4,1.1,1.3,1.2,2.7c0.1,1.4,0,2.4-0.4,3.2
				c-0.4,1.1-1.3,1.9-2.5,2.5c-1.2,0.6-2.3,1.1-3.3,1.6c-4.7,2-9.3,4.1-13.8,6.2c-4.5,2.1-9.1,4.2-13.8,6.2l-7.5,3.6
				c-1.4,0.6-2.8,1.3-4.1,1.9c-1.4,0.7-2.8,1.3-4.3,1.9c-0.6,0.3-1.3,0.6-2,0.9c-0.7,0.4-1.1,0.8-1.3,1.4c-0.2,0.8,0.1,1.4,0.7,1.8
				c0.7,0.4,1.2,0.7,1.6,0.9c1.5,0.8,3,1.5,4.7,2.2c1.6,0.7,3.2,1.4,4.8,2.1c2.9,1.2,5.8,2.5,8.6,4c2.9,1.4,5.7,2.7,8.5,3.9
				c1.7,0.7,3.3,1.4,4.9,2.2c1.6,0.7,3.2,1.5,4.7,2.2c1.2,0.5,2.5,1.1,3.7,1.6c1.2,0.5,2.5,1.1,3.7,1.7c1.1,0.5,2.2,1,3.6,1.5
				c1.3,0.5,2.3,1.2,2.9,2.2c0.2,0.3,0.3,0.6,0.3,0.9c0,0.4,0.1,0.7,0.2,1.1v1.1c0.2,0.4,0.2,0.9,0.1,1.5c-0.1,0.6-0.3,1-0.5,1.4
				c-0.4,0.7-1.1,1-2,0.8c-0.9-0.2-1.6-0.4-2.2-0.7c-1.9-0.9-3.8-1.7-5.7-2.6c-1.8-0.8-3.7-1.6-5.7-2.4c-6.1-2.7-12.1-5.5-18.2-8.3
				c-6.1-2.8-12.1-5.6-18.2-8.3c-1.5-0.7-3-1.4-4.5-2c-1.5-0.7-3-1.3-4.5-1.9c-1-0.4-1.9-0.9-2.7-1.3c-0.8-0.4-1.5-1-2-1.9
				c-0.4-0.6-0.7-1.7-0.7-3.2c0-1.5,0.2-2.7,0.7-3.4c0.4-0.7,1-1.3,1.8-1.6c0.7-0.4,1.6-0.8,2.4-1.1c1.3-0.6,2.6-1.2,4-1.8
				c1.3-0.6,2.7-1.2,4.1-1.8c4.9-2.2,9.8-4.4,14.6-6.6c4.8-2.2,9.7-4.5,14.7-6.6c1-0.4,2-0.9,3-1.4c1-0.5,2-0.9,3-1.4
				c1.9-0.9,3.8-1.7,5.7-2.6c1.8-0.8,3.7-1.7,5.7-2.6c0.5-0.2,1.1-0.4,1.6-0.7s1.1-0.5,1.6-0.7c0.2-0.1,0.4-0.2,0.7-0.2
				C251.7,687.2,251.9,687.1,252.2,686.9z"/>
		</g>
	</g>
</g>
</svg>
